<?xml version="1.0" standalone="no"?>
<!DOCTYPE svg PUBLIC "-//W3C//DTD SVG 20010904//EN"
 "http://www.w3.org/TR/2001/REC-SVG-20010904/DTD/svg10.dtd">
<svg version="1.0" xmlns="http://www.w3.org/2000/svg"
 width="779.000000pt" height="839.000000pt" viewBox="0 0 779.000000 839.000000"
 preserveAspectRatio="xMidYMid meet">

<g transform="translate(0.000000,839.000000) scale(0.100000,-0.100000)"
fill="#000000" stroke="none">
<path d="M110 8368 c1 -71 22 -282 35 -350 8 -44 15 -106 15 -137 0 -31 9
-107 20 -168 32 -183 32 -184 70 -135 21 26 22 34 17 170 -3 80 -10 148 -16
156 -7 8 -11 75 -12 177 -2 149 -3 197 -7 282 -2 26 -4 27 -62 27 -56 0 -60
-2 -60 -22z"/>
<path d="M290 8347 c0 -58 30 -268 41 -289 5 -9 9 -70 9 -135 1 -129 14 -252
31 -295 10 -24 16 -27 57 -25 l47 2 7 120 c7 124 2 201 -13 211 -11 7 -11 105
1 164 5 28 5 91 -2 168 l-12 122 -83 0 -83 0 0 -43z"/>
<path d="M514 8353 c3 -21 8 -83 12 -138 3 -55 13 -116 21 -135 9 -24 14 -66
13 -130 -2 -98 32 -356 49 -373 22 -22 35 40 35 168 1 107 4 136 20 164 15 29
17 48 12 115 -3 45 -6 145 -6 224 l0 142 -81 0 -81 0 6 -37z"/>
<path d="M787 8241 c2 -82 7 -179 11 -217 l7 -69 66 1 c37 0 80 6 96 13 23 9
48 10 105 2 46 -6 88 -7 109 -1 63 16 154 20 214 9 113 -20 144 -21 175 -7 26
10 31 18 28 39 -3 21 -1 25 14 21 12 -3 18 1 18 12 0 9 -7 16 -15 16 -8 0 -15
5 -15 11 0 7 -16 27 -35 45 -27 27 -42 34 -75 34 -34 0 -46 6 -80 41 -38 40
-40 43 -24 60 9 10 25 21 35 24 11 4 19 14 19 23 0 15 10 17 80 14 52 -2 80 0
80 7 0 6 -18 11 -40 11 -38 0 -40 2 -40 30 0 20 -5 30 -15 30 -10 0 -15 -10
-15 -31 0 -26 -3 -30 -22 -27 -19 2 -23 9 -21 33 1 17 0 23 -3 14 -5 -17 -44
-15 -44 2 0 5 -92 9 -205 9 -130 0 -205 -4 -205 -10 0 -5 -9 -10 -19 -10 -11
0 -23 5 -26 10 -3 6 -41 10 -84 10 l-78 0 4 -149z m203 99 c0 -5 -7 -10 -15
-10 -8 0 -15 5 -15 10 0 6 7 10 15 10 8 0 15 -4 15 -10z m225 -78 c17 -10 11
-12 -40 -13 -63 -1 -60 -4 18 -14 l47 -6 0 -41 c0 -40 0 -40 -32 -34 -18 3
-63 8 -100 12 -38 4 -68 11 -68 15 0 5 36 9 80 9 67 0 80 3 80 16 0 13 -9 15
-45 12 -25 -2 -45 0 -45 4 0 5 -16 8 -35 8 -24 0 -35 5 -35 15 0 11 11 15 39
15 22 0 42 4 45 8 7 12 68 8 91 -6z m65 -127 c0 -8 -7 -15 -15 -15 -13 0 -14
3 -3 15 16 18 18 18 18 0z"/>
<path d="M2866 8248 c-4 -79 -4 -235 -1 -348 3 -113 5 -229 5 -257 l0 -53 39
0 c44 0 45 2 57 134 4 42 10 79 14 81 4 2 10 -39 13 -92 6 -109 16 -126 74
-118 21 3 33 0 33 -8 0 -9 2 -9 8 -1 4 7 15 13 25 15 10 2 18 7 18 12 -1 4 -1
41 -1 82 0 63 -3 77 -17 81 -49 15 -67 50 -56 105 7 37 17 37 36 -3 13 -27 21
-32 56 -34 48 -2 53 4 62 76 9 83 -5 171 -33 194 -16 14 -18 17 -5 13 15 -5
16 -2 11 21 -8 33 -14 41 -14 19 0 -22 -17 -22 -23 1 -3 15 -5 15 -11 -3 -18
-49 -40 -84 -55 -88 -18 -4 -34 -61 -47 -167 -3 -30 -9 -59 -12 -64 -10 -17
-32 78 -32 140 0 53 -4 67 -35 110 -49 68 -45 119 13 167 18 15 22 29 22 73
l0 54 -69 0 -68 0 -7 -142z"/>
<path d="M3090 8350 c0 -33 3 -40 20 -40 15 0 20 -7 20 -25 0 -45 21 -75 51
-75 23 0 30 6 35 28 4 15 10 29 14 32 4 3 10 31 14 63 l6 57 -80 0 -80 0 0
-40z"/>
<path d="M3353 8333 c4 -41 12 -63 26 -74 46 -37 52 -97 17 -169 -24 -49 -24
-55 -19 -223 4 -108 10 -175 17 -179 6 -4 25 -8 41 -8 22 0 26 -3 15 -9 -8 -6
-17 -8 -21 -5 -4 2 -12 -3 -19 -11 -7 -8 -17 -12 -22 -9 -6 4 -14 0 -19 -7 -6
-11 -11 -11 -21 -1 -9 9 -9 12 1 12 7 0 10 7 7 18 -3 10 -8 77 -10 150 -4 156
-9 169 -32 93 -3 -9 -9 -7 -22 9 -18 23 -18 22 -20 -36 0 -32 -1 -66 -1 -76
-1 -9 -16 -25 -35 -36 -30 -18 -35 -27 -38 -64 -2 -24 3 -54 9 -68 19 -37 16
-52 -7 -45 -15 5 -18 3 -14 -8 6 -17 -12 -32 -21 -17 -3 5 -13 10 -22 10 -13
0 -13 -3 -3 -15 16 -19 91 -18 83 2 -3 7 0 13 7 13 6 0 9 4 5 9 -3 5 -1 12 4
15 5 4 12 2 15 -3 4 -5 2 -12 -4 -16 -5 -3 -10 -15 -10 -26 0 -17 -10 -24 -32
-20 -4 0 -10 -15 -14 -34 -3 -19 -10 -35 -15 -35 -5 0 -6 7 -3 15 4 8 1 15 -5
15 -6 0 -11 8 -11 18 0 13 -4 11 -18 -9 -14 -20 -22 -24 -42 -18 l-25 7 28 1
c37 1 38 38 1 47 -26 7 -54 -9 -40 -23 4 -4 11 -1 16 7 5 8 12 11 15 8 11 -11
-5 -28 -26 -28 -10 0 -19 5 -19 12 0 6 -3 8 -7 5 -3 -4 -12 -2 -19 4 -10 9
-15 7 -20 -5 -3 -9 -15 -16 -25 -16 -10 0 -24 -9 -31 -20 -7 -11 -21 -20 -30
-20 -15 0 -24 -19 -15 -35 1 -2 -7 -10 -17 -18 -13 -10 -17 -21 -13 -36 10
-39 -1 -49 -46 -45 -38 4 -37 0 1 -12 26 -8 -15 -34 -52 -34 -28 0 -36 -4 -36
-18 0 -11 -8 -18 -21 -19 -26 -2 -39 -14 -22 -20 20 -7 3 -31 -18 -26 -15 4
-17 8 -8 19 15 18 7 18 -36 -3 -37 -18 -45 -37 -20 -47 8 -3 15 -10 15 -15 0
-11 -39 -9 -60 4 -10 6 -12 4 -7 -8 3 -10 2 -17 -2 -17 -5 0 -12 6 -14 13 -3
6 -6 1 -7 -13 -3 -34 -3 -32 5 -57 5 -17 2 -23 -10 -23 -9 0 -14 -4 -10 -9 6
-11 -32 -26 -54 -22 -8 1 -10 -2 -5 -11 4 -7 9 -19 11 -28 1 -8 4 -28 7 -45 3
-16 3 -21 0 -10 -14 49 -70 53 -76 6 -2 -14 -7 -24 -12 -23 -9 4 -27 -20 -27
-35 1 -5 -14 -13 -31 -19 -32 -10 -53 -37 -27 -33 8 1 25 1 39 0 18 -1 21 -4
11 -10 -8 -5 -27 -5 -45 0 -45 13 -53 11 -59 -12 -3 -12 -10 -18 -16 -14 -6 3
-11 1 -11 -4 0 -6 -7 -11 -15 -11 -8 0 -15 -6 -15 -14 0 -8 -3 -21 -6 -29 -3
-9 0 -17 8 -20 7 -2 2 -3 -12 -1 -20 2 -26 -2 -27 -19 -1 -12 3 -25 10 -29 9
-6 9 -8 0 -8 -6 0 -15 5 -18 10 -12 19 -38 11 -32 -10 4 -15 0 -20 -14 -20
-10 0 -19 -7 -19 -15 0 -8 -4 -15 -10 -15 -5 0 -10 -5 -10 -11 0 -5 5 -7 12
-3 7 5 8 3 3 -6 -4 -7 -2 -16 6 -22 10 -7 6 -8 -13 -4 -25 6 -27 5 -21 -27 3
-23 -2 -46 -19 -78 -20 -36 -22 -49 -14 -62 9 -11 17 -12 29 -6 11 7 17 6 17
-1 0 -17 -26 -23 -49 -10 -25 13 -28 2 -5 -15 15 -10 15 -13 1 -27 -12 -12
-13 -18 -4 -28 10 -10 6 -11 -16 -6 -28 7 -28 6 -23 -30 5 -30 4 -35 -9 -30
-16 6 -18 -3 -17 -66 0 -25 -3 -35 -11 -32 -9 3 -13 -17 -14 -71 -1 -59 1 -76
14 -84 11 -5 14 -17 11 -34 -3 -15 0 -28 6 -31 7 -3 7 -5 -1 -5 -7 -1 -13 -8
-13 -16 0 -8 -4 -15 -10 -15 -5 0 -10 -5 -10 -11 0 -5 5 -7 10 -4 13 8 6 -36
-9 -62 -8 -14 -9 -11 -5 15 5 26 3 32 -11 32 -13 0 -15 -6 -10 -30 6 -26 4
-30 -15 -30 -18 0 -20 -3 -11 -14 6 -7 13 -34 15 -59 5 -52 12 -67 29 -67 7 0
6 4 -3 10 -12 8 -11 10 8 10 19 0 21 -3 12 -19 -5 -11 -10 -29 -10 -40 0 -10
-6 -21 -12 -24 -7 -2 -1 -8 15 -12 31 -8 37 -25 8 -25 -17 0 -19 -8 -19 -62 0
-35 -1 -65 -2 -68 -9 -23 -9 -70 -1 -70 6 0 11 -21 11 -48 0 -26 6 -54 12 -60
10 -10 10 -15 -2 -23 -13 -8 -12 -11 4 -24 12 -9 15 -15 7 -15 -11 0 -11 -3
-1 -15 10 -12 9 -16 -4 -21 -11 -4 -15 -12 -10 -23 6 -16 10 -39 13 -73 0 -11
9 -18 20 -18 14 0 19 -6 18 -20 -1 -23 -17 -28 -17 -5 0 8 -4 15 -10 15 -6 0
-6 -9 0 -26 6 -14 10 -34 10 -46 0 -11 11 -42 25 -70 14 -27 25 -58 25 -69 0
-10 4 -19 8 -19 4 0 14 -16 21 -35 8 -23 19 -35 31 -35 14 0 18 -5 13 -17 -5
-13 -2 -15 16 -10 18 4 21 2 16 -13 -3 -10 -1 -21 5 -25 5 -3 10 -15 10 -26 0
-10 5 -19 10 -19 10 0 10 50 0 60 -15 15 -28 50 -21 55 5 3 12 -1 14 -7 4 -9
6 -9 6 -1 1 6 -6 19 -15 27 -8 9 -12 20 -9 26 3 5 -1 10 -9 10 -17 0 -20 60
-2 60 6 0 3 7 -7 14 -14 11 -15 15 -5 19 8 4 7 6 -4 6 -18 1 -26 21 -8 21 11
0 5 21 -18 67 -9 17 -20 30 -24 27 -4 -3 -8 10 -8 29 0 31 -3 35 -22 31 l-23
-5 23 11 c14 6 22 17 20 27 -4 21 31 31 43 11 6 -10 9 -10 9 0 0 12 -41 58
-50 55 -3 0 -11 5 -18 13 -7 8 -8 14 -2 14 5 0 10 7 10 16 0 12 6 15 21 11 15
-4 19 -2 15 8 -3 8 0 17 6 21 7 5 2 11 -13 16 -16 6 -20 11 -11 17 8 5 9 16 2
40 -10 37 6 75 29 66 10 -4 12 3 9 29 -3 24 0 32 9 29 7 -3 13 -1 13 5 0 13
-27 23 -45 16 -10 -4 -15 0 -15 11 0 12 5 15 21 10 15 -5 19 -4 15 4 -13 21
-46 13 -46 -11 0 -35 -26 -103 -33 -87 -3 9 -6 7 -6 -6 -1 -11 8 -29 20 -38
11 -10 19 -21 16 -24 -3 -2 -15 5 -27 17 -16 16 -23 37 -25 78 -3 31 -2 48 1
37 13 -49 15 -51 30 -31 9 13 10 23 4 31 -10 12 -13 50 -7 103 4 34 17 57 17
29 0 -28 27 -19 41 12 7 16 16 28 20 25 4 -2 4 9 -1 26 -5 17 -5 32 1 35 5 4
9 5 10 3 0 -2 2 -11 4 -22 6 -32 22 -40 30 -16 4 13 3 25 -4 29 -6 4 -12 24
-13 44 -2 22 -8 37 -16 37 -7 0 -10 -5 -6 -12 4 -7 3 -8 -5 -4 -8 6 -9 11 -1
21 8 9 5 11 -15 7 -33 -6 -41 -20 -19 -36 20 -15 11 -36 -17 -36 -12 0 -19 -7
-19 -20 0 -11 -5 -20 -11 -20 -6 0 -8 -7 -5 -16 5 -14 4 -15 -9 -4 -14 12 -14
15 0 30 8 9 15 22 15 28 0 7 5 12 10 12 6 0 10 10 10 23 0 12 10 37 23 56 12
19 28 44 34 55 7 12 13 15 13 8 0 -7 5 -10 11 -7 6 4 8 14 4 22 -5 14 -3 14
11 2 10 -8 12 -15 5 -17 -8 -3 -8 -9 -1 -23 13 -23 30 -25 30 -4 0 18 16 20
24 3 3 -7 3 3 0 22 -4 19 -11 41 -16 48 -8 9 -5 12 9 12 11 0 28 10 39 23 22
26 32 63 13 51 -8 -4 -10 -3 -5 4 4 7 2 20 -3 29 -9 16 -10 16 -11 1 0 -20
-36 -13 -45 9 -5 13 -3 14 11 3 13 -12 17 -11 25 1 6 9 3 18 -9 28 -16 12 -15
13 5 8 26 -6 66 42 57 70 -5 14 -4 15 4 4 16 -22 82 35 78 68 -2 15 -1 18 1 9
8 -32 29 -18 24 15 0 4 8 7 19 7 11 0 20 -6 20 -12 0 -8 3 -9 8 -3 4 6 19 16
35 22 15 7 27 20 27 28 0 9 5 13 11 10 6 -4 13 2 16 14 3 12 10 21 17 22 6 0
4 3 -5 7 -14 6 -14 9 -4 19 10 9 17 7 33 -7 18 -17 22 -17 32 -5 10 11 10 15
1 15 -7 0 -9 5 -6 11 4 6 9 8 12 6 2 -3 16 6 30 19 30 28 48 30 61 8 12 -21
32 -10 32 18 0 17 4 19 25 14 23 -6 25 -4 25 26 0 30 1 31 14 13 14 -19 15
-19 26 6 9 20 17 25 32 21 11 -3 24 1 28 9 5 7 21 14 37 15 50 3 58 4 72 13
12 8 12 12 2 25 -7 8 -10 20 -6 27 6 8 10 7 17 -2 6 -10 7 -7 3 9 -5 16 -2 22
9 22 13 0 14 -5 6 -26 -13 -33 -13 -54 1 -54 5 0 7 5 4 10 -10 16 36 28 74 19
34 -8 60 -1 33 8 -6 3 -9 9 -6 15 4 6 10 5 15 -3 8 -11 11 -11 20 4 6 9 14 15
20 12 11 -8 39 19 39 37 0 15 36 49 43 41 3 -3 3 -11 0 -19 -6 -17 38 -37 89
-40 33 -2 37 0 35 19 -1 12 3 22 8 23 6 0 18 4 27 8 9 4 25 3 35 -3 31 -16 61
12 32 30 -8 4 -10 11 -6 15 13 14 38 -19 32 -43 -5 -20 -2 -23 25 -23 18 0 29
-4 25 -10 -4 -6 10 -10 34 -10 23 0 41 -4 41 -9 0 -5 13 4 29 20 16 16 37 29
45 29 9 0 16 7 16 15 0 20 46 49 62 39 19 -12 62 -14 68 -3 4 5 14 7 23 3 9
-3 14 -10 11 -15 -3 -5 -10 -7 -15 -3 -5 3 -8 -8 -7 -25 2 -25 5 -28 19 -20
24 13 29 11 29 -8 0 -13 5 -11 21 8 12 13 20 17 17 9 -3 -8 6 -23 19 -33 23
-19 31 -47 13 -47 -5 0 -10 9 -10 21 0 15 -4 19 -16 15 -9 -3 -18 -6 -20 -6
-2 0 -4 -4 -4 -10 0 -5 6 -10 14 -10 9 0 12 -8 8 -27 -5 -25 -3 -26 11 -15 14
12 16 8 20 -30 l4 -43 1 48 c1 26 6 47 11 47 5 0 16 3 25 6 9 3 16 1 16 -4 0
-6 -8 -13 -17 -15 -10 -3 -3 -5 14 -6 31 -1 32 0 23 25 -13 33 -14 30 18 42
41 16 94 23 87 12 -3 -5 2 -13 10 -18 15 -8 15 -10 1 -21 -20 -17 -21 -32 -2
-25 8 3 23 -5 35 -17 12 -13 21 -19 21 -13 0 5 9 -9 19 -31 17 -40 18 -40 30
-16 7 12 11 31 8 42 -3 10 1 26 9 36 7 10 14 13 14 7 0 -5 -5 -15 -12 -22 -9
-9 -9 -12 -1 -12 7 0 14 4 17 9 3 5 14 7 24 4 10 -2 24 2 31 11 10 12 18 13
37 4 13 -6 24 -15 24 -19 0 -5 6 -6 14 -3 8 3 25 0 37 -7 19 -10 25 -9 40 10
17 20 56 20 43 -1 -3 -5 3 -4 14 3 16 10 26 10 44 2 13 -7 48 -17 78 -23 61
-12 110 -31 110 -42 0 -5 -8 -8 -17 -8 -12 0 -7 -7 15 -20 33 -20 40 -34 22
-45 -6 -3 -7 1 -4 9 5 13 -2 16 -35 16 -29 0 -41 -4 -41 -14 0 -8 5 -18 11
-22 8 -4 7 -9 -2 -15 -10 -6 -9 -12 5 -28 22 -24 38 -28 30 -7 -3 8 -1 17 5
21 6 3 16 -6 21 -21 9 -21 7 -29 -7 -39 -21 -16 -31 -11 -43 20 -8 21 -12 23
-42 14 -18 -5 -34 -9 -35 -9 -2 0 -3 -4 -3 -9 0 -5 12 -12 28 -14 16 -2 9 -5
-20 -6 -49 -1 -61 -13 -32 -29 15 -8 15 -10 -1 -15 -9 -4 -14 -11 -10 -16 3
-6 12 -8 20 -4 8 3 23 2 33 -2 15 -6 14 -8 -6 -16 -12 -4 -29 -6 -37 -3 -9 4
-15 0 -15 -9 0 -8 6 -18 13 -20 7 -3 5 -6 -5 -6 -18 -1 -23 -12 -11 -24 3 -4
12 -2 19 4 7 6 23 8 35 4 29 -9 6 -25 -36 -25 -23 0 -26 -3 -15 -10 19 -12 2
-44 -27 -48 -16 -2 -22 4 -27 28 -8 44 -30 28 -22 -18 4 -29 1 -39 -20 -59
-14 -13 -29 -23 -34 -23 -5 0 -18 -10 -30 -22 -11 -12 -20 -18 -20 -12 0 17
-20 -21 -20 -39 0 -17 1 -17 16 -3 8 9 24 16 35 16 11 0 30 5 41 11 17 9 18
13 7 20 -12 7 -11 9 1 9 23 0 35 -13 36 -37 0 -17 -3 -20 -15 -13 -10 5 -23 3
-36 -6 -16 -12 -17 -14 -2 -14 10 0 17 -8 17 -17 -1 -31 -23 -49 -57 -47 -18
1 -30 -2 -27 -7 3 -5 16 -9 30 -9 15 0 24 -6 24 -15 0 -8 8 -15 18 -15 16 -1
16 -1 0 -14 -10 -7 -18 -18 -18 -24 0 -6 -6 -13 -12 -15 -8 -3 -6 -6 5 -6 10
-1 17 6 17 17 1 16 2 16 15 -2 8 -11 21 -16 30 -13 8 4 15 2 15 -4 0 -6 5 -7
10 -4 8 5 7 11 -1 21 -6 7 -15 11 -20 8 -5 -3 -9 2 -9 10 0 9 0 19 0 24 0 4 6
7 13 7 6 0 11 -7 9 -16 -1 -9 4 -19 12 -22 15 -6 16 -73 2 -96 -4 -6 -2 -11 3
-11 12 0 14 11 11 48 -1 12 3 22 9 22 6 0 11 6 11 14 0 28 19 27 34 -1 9 -17
16 -22 17 -13 1 8 5 -3 9 -25 l7 -40 2 45 c1 32 4 41 11 30 5 -8 7 -25 4 -37
-5 -18 -2 -21 14 -16 11 2 23 0 26 -6 5 -7 -3 -11 -18 -11 -14 0 -26 -5 -26
-10 0 -6 11 -8 28 -4 24 6 25 5 12 -9 -8 -8 -36 -17 -62 -20 -42 -3 -48 -2
-48 15 0 21 11 23 28 6 16 -16 21 -8 15 23 -5 26 -53 60 -53 38 0 -6 9 -13 20
-16 11 -3 20 -9 20 -13 0 -5 -9 -6 -20 -3 -16 4 -20 0 -20 -20 0 -28 -15 -44
-23 -25 -4 8 -6 9 -6 2 -1 -15 48 -47 78 -52 20 -3 61 -21 91 -40 2 -2 -2 -7
-10 -12 -11 -7 -8 -10 14 -10 24 0 27 2 16 15 -10 13 -9 15 9 15 12 0 21 6 21
16 0 8 5 12 10 9 7 -4 8 -11 2 -18 -13 -16 4 -60 20 -54 7 2 18 -5 24 -16 11
-20 12 -20 18 1 9 29 32 28 41 0 4 -14 8 -18 12 -10 2 6 15 12 28 12 14 0 32
11 44 28 16 21 20 23 21 10 0 -17 10 -22 38 -19 19 3 63 -52 49 -61 -6 -4 -18
-1 -27 6 -16 14 -54 7 -48 -9 2 -6 -12 -11 -29 -13 -23 -2 -33 -9 -34 -20 0
-12 -3 -9 -10 7 -12 29 -24 19 -37 -29 -7 -30 -13 -35 -35 -33 -15 1 -27 -2
-27 -8 0 -5 -17 -10 -37 -10 l-38 -1 43 -11 c23 -5 42 -14 42 -19 0 -4 -12 -5
-27 -2 -19 5 -30 2 -40 -12 -12 -16 -16 -17 -36 -5 -20 13 -21 13 -8 -2 11
-14 11 -18 -3 -23 -9 -4 -30 -4 -47 0 -17 3 -28 2 -24 -3 3 -5 -3 -12 -12 -15
-10 -3 -1 -4 20 -3 27 2 37 -1 37 -12 0 -8 -3 -12 -6 -8 -3 3 -26 -3 -51 -14
-24 -10 -61 -20 -81 -21 l-37 -1 33 -4 c28 -4 31 -7 22 -24 -6 -10 -20 -19
-31 -19 -13 0 -18 -4 -13 -12 5 -9 2 -8 -10 1 -13 11 -14 16 -4 22 9 6 6 9
-10 9 -13 0 -20 -4 -17 -10 3 -5 -1 -10 -9 -10 -10 0 -13 6 -10 15 5 12 -2 14
-40 9 -54 -6 -60 1 -13 16 32 10 32 10 -8 5 l-40 -4 23 19 c25 21 29 32 7 24
-30 -12 -7 25 25 39 8 4 1 5 -17 2 -45 -6 -50 11 -8 31 19 9 35 21 35 26 0 5
-4 7 -9 3 -5 -3 -12 -1 -15 4 -3 5 1 11 9 15 17 6 21 26 5 26 -17 0 -47 -35
-42 -49 3 -8 -1 -11 -9 -8 -8 2 -25 -6 -39 -19 -14 -13 -41 -25 -60 -26 -32
-3 -35 0 -38 25 -2 19 1 27 12 27 9 0 16 -7 16 -15 0 -8 5 -15 11 -15 6 0 9 7
5 15 -3 9 0 15 8 15 8 0 16 6 19 14 3 9 16 13 31 12 21 -3 26 1 26 20 0 22 -1
22 -27 9 -15 -8 -30 -12 -35 -9 -4 3 -11 -1 -14 -10 -3 -8 -11 -13 -19 -10 -7
3 -20 -2 -29 -11 -9 -9 -20 -13 -26 -10 -5 3 -10 2 -10 -4 0 -6 -7 -8 -15 -5
-9 4 -15 0 -15 -9 0 -8 6 -17 13 -20 6 -2 9 -7 6 -11 -3 -3 -19 0 -35 9 -34
17 -43 5 -23 -31 7 -13 9 -27 6 -31 -4 -3 -7 1 -7 10 0 22 -17 22 -23 0 -4
-17 -4 -17 -12 1 -5 12 -3 21 6 26 7 5 10 13 5 17 -5 4 -11 2 -13 -5 -3 -7
-17 -24 -32 -38 -30 -28 -36 -81 -11 -101 10 -9 11 -12 3 -13 -18 0 -16 -20 1
-20 7 0 16 9 19 20 3 14 14 20 31 20 32 0 34 -16 4 -25 -23 -7 -78 -60 -78
-75 0 -4 -7 -11 -16 -14 -8 -3 -12 -10 -9 -16 3 -5 1 -10 -4 -10 -17 0 -13
-21 6 -36 24 -17 10 -28 -35 -27 -20 0 -31 -2 -24 -4 17 -6 15 -33 -2 -33 -8
0 -16 -7 -20 -15 -4 -10 -14 -14 -31 -11 -24 4 -55 -15 -55 -34 0 -5 -7 -7
-16 -3 -9 3 -19 1 -23 -5 -4 -7 -11 -4 -19 8 -11 18 -10 20 10 20 13 0 34 9
48 20 l25 19 -25 9 c-14 5 -29 7 -34 5 -4 -3 -12 0 -16 7 -5 9 -19 10 -44 6
-39 -7 -44 -17 -21 -36 12 -10 21 -10 42 -1 27 12 44 7 27 -8 -22 -22 -61 -16
-88 14 -15 16 -25 34 -22 41 3 7 0 11 -7 9 -37 -11 -77 -14 -72 -5 9 15 -37
30 -52 18 -10 -8 -13 -5 -13 11 0 15 -6 21 -22 21 -19 0 -20 -2 -8 -10 12 -8
10 -10 -8 -10 -13 0 -20 4 -17 10 4 6 -13 9 -42 9 -59 -2 -113 9 -113 22 0 6
-8 6 -19 -1 -26 -14 -31 -13 -31 6 0 14 -1 14 -16 0 -17 -17 -39 -22 -29 -7 8
14 -28 23 -66 15 -19 -3 -72 -6 -119 -6 -47 0 -79 -2 -72 -5 27 -10 11 -25
-20 -18 -47 10 -168 6 -192 -7 -12 -7 -36 -11 -53 -9 -23 2 -33 -2 -33 -12 0
-10 8 -13 28 -10 21 4 24 2 12 -6 -12 -8 -12 -11 -1 -11 8 0 11 -7 8 -19 -5
-21 15 -35 29 -21 9 9 38 4 141 -22 25 -6 53 -23 69 -41 25 -28 25 -30 5 -24
-21 5 -29 -7 -11 -18 31 -19 -5 -69 -56 -77 -16 -3 -38 -9 -48 -13 -15 -6 -17
-5 -11 5 6 10 4 11 -6 4 -8 -5 -25 -10 -39 -11 -63 -5 -155 -24 -158 -33 -2
-6 -11 -10 -20 -10 -25 0 -82 -23 -82 -33 0 -5 -6 -7 -14 -4 -8 3 -28 -11 -47
-34 -66 -77 -74 -85 -106 -98 -18 -7 -33 -17 -33 -22 0 -4 -10 -11 -22 -15
-20 -6 -16 -9 27 -21 28 -8 76 -14 108 -15 31 -1 55 -3 54 -5 -2 -2 -24 -10
-48 -17 -36 -11 -39 -14 -17 -15 14 -1 35 -4 45 -7 11 -4 14 -3 6 3 -17 12 47
54 97 63 33 6 40 5 40 -9 1 -14 2 -14 14 1 7 10 16 15 19 11 4 -3 7 2 8 13 0
17 2 17 11 -3 12 -26 28 -30 28 -9 0 10 8 13 25 10 17 -3 24 0 23 8 -3 15 45
12 50 -3 2 -6 11 -4 19 3 14 11 15 10 9 -10 -5 -13 -3 -22 3 -22 6 0 10 6 8
13 -1 8 9 11 30 10 17 -2 35 2 39 9 4 7 3 8 -4 4 -17 -10 -89 12 -96 29 -4 11
1 15 18 15 14 0 26 6 29 13 5 16 113 -76 133 -115 l16 -31 -31 6 c-17 4 -38 4
-46 0 -14 -5 -14 -8 2 -27 18 -21 18 -21 -3 -3 -11 9 -26 17 -32 17 -7 0 -12
7 -12 16 0 8 5 12 10 9 6 -3 10 -2 10 3 0 8 -22 22 -34 22 -7 0 7 -51 15 -56
5 -3 9 -14 9 -24 0 -24 -50 -35 -132 -27 -33 3 -57 3 -55 1 6 -6 132 -27 202
-33 28 -3 -26 -21 -65 -21 -25 -1 -63 -5 -85 -9 -32 -7 -18 -9 70 -11 l110 -2
-55 -13 -55 -13 80 4 c57 4 76 2 65 -5 -19 -13 34 -14 98 -2 29 6 42 5 42 -3
0 -7 3 -7 8 -1 4 6 17 15 29 22 19 11 22 10 20 -8 -1 -11 -6 -18 -12 -15 -6 2
-24 -7 -40 -20 -33 -26 -23 -33 12 -9 12 8 29 16 40 18 10 1 30 11 45 21 16
10 35 15 44 12 15 -6 15 -4 3 10 -13 16 -11 17 13 11 15 -4 29 -4 31 0 3 5
-10 9 -29 10 -19 2 -34 -2 -34 -7 0 -6 -6 -10 -14 -10 -7 0 -19 -7 -26 -15
-16 -19 -31 -20 -24 -1 6 17 106 66 134 66 10 0 26 7 34 16 9 8 16 11 16 5 0
-14 -33 -31 -62 -32 -13 0 -17 -3 -9 -6 22 -9 90 18 96 39 4 12 16 18 36 18
17 0 28 4 24 9 -3 6 1 13 8 18 7 4 16 16 20 26 4 10 3 16 -2 12 -16 -9 -25 16
-10 27 11 8 11 11 1 15 -19 7 5 33 32 33 11 0 43 7 71 15 53 16 115 73 115
106 0 9 8 20 18 24 15 7 13 9 -8 15 -17 4 6 9 70 15 52 4 98 12 102 18 4 7 11
2 17 -13 7 -18 10 -20 10 -7 1 12 9 17 31 17 33 0 38 -11 16 -33 -13 -13 -12
-14 11 -14 15 0 32 -8 38 -17 7 -9 17 -16 23 -16 12 0 24 -28 17 -40 -3 -4 4
-6 16 -3 18 5 20 3 15 -15 -5 -14 -1 -24 11 -31 10 -6 12 -11 6 -11 -18 0 -16
-20 2 -20 8 0 14 -3 14 -7 -4 -23 3 -34 18 -31 13 2 18 -5 19 -32 2 -57 3 -60
24 -60 24 0 26 -15 4 -28 -14 -8 -14 -10 0 -21 13 -11 16 -11 16 3 0 9 4 16
10 16 5 0 7 -7 4 -15 -4 -8 -1 -15 4 -15 6 0 19 -17 28 -37 10 -21 19 -40 21
-42 1 -2 12 7 23 20 l20 24 -6 -31 c-5 -29 -3 -32 25 -37 18 -4 31 -13 31 -21
0 -9 10 -25 23 -37 15 -15 18 -23 10 -26 -19 -7 -16 -53 2 -53 8 0 15 -5 15
-12 0 -6 14 4 30 22 22 25 30 29 30 16 0 -9 5 -14 10 -11 6 4 17 1 25 -5 8 -7
22 -10 30 -6 8 3 15 1 15 -4 0 -4 14 -11 31 -15 42 -9 106 -70 87 -81 -8 -5
-14 -26 -15 -49 -1 -76 -3 -95 -12 -95 -5 0 -41 -18 -80 -40 -72 -41 -101 -47
-144 -31 -16 6 -39 6 -64 0 -41 -11 -161 -70 -205 -100 -17 -12 -43 -19 -76
-19 -36 0 -59 -7 -85 -25 -26 -17 -50 -24 -84 -24 -130 -1 -120 -2 -98 15 19
16 19 16 -12 12 -18 -3 -33 -1 -33 3 0 4 -16 5 -37 2 -26 -4 -34 -3 -29 5 5 9
-10 12 -53 12 -33 0 -63 4 -66 10 -15 24 -135 -4 -135 -32 0 -5 17 -26 38 -46
21 -20 50 -54 65 -74 40 -54 105 -89 174 -94 78 -5 96 -8 113 -19 8 -5 23 -11
33 -12 10 -2 30 -10 45 -18 23 -12 24 -14 7 -15 -12 0 -16 -3 -9 -8 14 -10 17
-81 4 -97 -6 -7 -8 -23 -6 -36 3 -13 5 -28 5 -32 1 -5 6 -5 11 -2 6 3 10 1 10
-4 0 -6 7 -11 15 -11 8 0 12 6 9 14 -3 9 6 19 25 27 17 8 31 17 31 21 0 19 19
6 22 -14 l3 -23 14 25 c8 13 10 25 4 27 -5 2 -7 19 -5 39 4 35 6 36 36 28 17
-4 47 -8 66 -8 19 -1 41 -7 49 -14 7 -7 22 -10 33 -7 10 4 25 1 33 -5 11 -9
19 -9 28 -2 8 7 18 7 27 2 8 -5 18 -6 22 -4 4 3 8 -5 9 -18 0 -23 0 -23 11 2
9 21 12 22 15 8 3 -10 9 -18 14 -18 6 0 7 -9 4 -20 -4 -12 -2 -20 5 -20 6 0 8
-4 5 -10 -4 -6 7 -10 24 -10 17 0 31 -4 31 -10 0 -5 -7 -7 -16 -3 -13 5 -15 2
-10 -15 8 -24 -7 -37 -30 -24 -12 7 -22 4 -34 -8 -9 -9 -75 -31 -146 -49 -112
-28 -141 -31 -223 -27 -77 3 -104 1 -143 -15 -33 -13 -64 -18 -96 -15 -25 3
-51 1 -57 -4 -7 -5 -43 -13 -81 -16 -38 -4 -71 -10 -75 -15 -3 -5 -25 -8 -50
-7 -24 1 -54 -2 -66 -6 -14 -5 -23 -3 -23 3 0 6 9 11 19 11 11 0 23 5 27 12 5
8 2 9 -12 4 -21 -8 -77 -20 -163 -36 -44 -8 -58 -7 -71 5 -9 8 -22 15 -28 15
-6 0 -13 8 -15 18 -3 10 -5 4 -6 -13 -2 -30 -2 -29 -16 10 -8 22 -15 55 -15
73 0 57 -28 31 -33 -30 -1 -10 -8 -15 -19 -13 -14 3 -18 -3 -19 -23 -3 -56
-15 -82 -40 -82 -10 0 -19 -5 -19 -11 0 -6 9 -8 23 -4 16 5 13 1 -10 -15 -39
-26 -42 -34 -8 -26 27 7 36 -11 10 -20 -42 -17 3 -63 63 -65 15 0 21 -3 15 -6
-18 -7 -16 -23 3 -23 18 0 35 16 52 50 11 25 12 24 8 -7 -3 -24 0 -33 10 -33
9 0 12 5 9 10 -3 6 4 14 17 19 21 9 21 10 3 11 -18 1 -18 2 4 14 27 15 37 14
146 -15 165 -42 190 -48 198 -40 4 4 0 27 -8 51 -25 72 -3 89 62 49 33 -21 38
-21 86 -8 29 8 65 12 82 8 63 -14 103 -10 129 13 50 47 48 46 111 31 33 -8 65
-19 71 -26 6 -7 21 -40 35 -75 l24 -63 17 68 c19 77 41 99 106 109 48 7 78 -7
114 -56 24 -34 39 -37 58 -15 7 9 19 14 26 11 7 -3 16 -1 19 4 9 14 61 12 72
-2 5 -7 8 -19 7 -25 -1 -7 -2 -17 -3 -23 -1 -10 -116 -80 -131 -80 -5 0 -10
19 -12 43 l-3 42 -11 -48 -11 -47 77 0 c42 0 99 -6 126 -14 27 -8 65 -17 84
-20 29 -5 35 -10 37 -33 1 -17 -2 -22 -7 -13 -13 20 -116 -5 -131 -31 -5 -11
-21 -24 -35 -29 -30 -12 -34 -45 -4 -37 12 3 18 1 14 -5 -4 -5 -19 -8 -35 -6
-26 4 -29 2 -29 -24 0 -15 -4 -28 -10 -28 -5 0 -6 -7 -3 -17 4 -10 2 -14 -4
-10 -6 4 -22 3 -35 -2 l-23 -10 25 0 c14 0 46 4 72 8 26 4 45 4 42 -1 -3 -4
-16 -8 -29 -8 -13 0 -27 -5 -30 -11 -13 -21 5 -21 47 -1 24 11 59 23 78 25 19
2 27 2 17 0 -9 -2 -15 -9 -12 -14 3 -5 0 -6 -8 -3 -8 3 -18 -6 -25 -22 -8 -17
-18 -24 -28 -20 -8 3 -17 -1 -21 -9 -3 -10 -12 -13 -23 -10 -10 3 -21 1 -25
-5 -3 -5 -17 -10 -30 -10 -13 0 -31 -7 -39 -16 -15 -14 -16 -14 -16 0 0 21
-26 21 -34 0 -5 -12 -16 -15 -46 -11 -22 2 -40 1 -40 -2 0 -10 -214 -32 -234
-25 -9 3 -18 0 -21 -8 -4 -11 -31 -13 -128 -11 -75 2 -133 -2 -150 -9 -23 -9
-31 -8 -37 3 -7 11 -10 10 -16 -4 -7 -18 -34 -24 -34 -6 0 5 -5 7 -10 4 -6 -4
-17 -1 -25 5 -12 10 -18 10 -29 1 -12 -10 -9 -18 20 -49 19 -20 34 -41 34 -45
0 -5 4 -6 9 -2 5 3 8 -7 7 -22 -2 -18 -10 -29 -22 -31 -35 -6 -45 -12 -39 -22
5 -8 11 -8 19 0 16 13 76 2 76 -14 0 -18 -22 -36 -44 -36 -19 0 -19 -1 3 -16
18 -13 25 -14 31 -4 4 7 13 9 20 5 9 -6 9 -9 -1 -16 -11 -7 -10 -9 5 -9 11 0
16 -5 13 -14 -7 -17 16 -28 40 -19 12 5 15 2 10 -10 -7 -20 -6 -20 27 -8 17 7
26 6 30 -2 5 -9 8 -9 12 1 5 10 11 9 26 -5 15 -13 22 -15 25 -5 6 17 32 15 39
-3 4 -8 14 -15 23 -15 9 0 22 -5 29 -12 9 -9 12 -9 12 0 0 6 -11 14 -25 18
-14 4 -24 9 -21 12 9 8 66 -20 60 -29 -13 -22 9 -28 34 -10 25 17 33 17 100 6
40 -7 75 -15 77 -17 10 -10 -8 -76 -20 -72 -6 3 -18 -2 -25 -11 -7 -8 -18 -15
-25 -15 -7 0 -15 -7 -19 -15 -3 -8 -12 -15 -21 -15 -17 0 -19 -13 -5 -40 7
-13 7 -21 0 -25 -5 -3 -10 3 -10 14 0 12 -5 21 -11 21 -8 0 -10 -12 -6 -36 8
-46 15 -54 32 -31 9 13 20 17 33 13 28 -9 72 3 72 20 0 18 -15 18 -34 -1 -22
-22 -34 -18 -29 9 6 32 53 52 82 36 12 -6 21 -7 21 -3 0 5 10 13 22 18 12 6
25 23 30 39 7 30 0 53 -9 28 -4 -10 -8 -10 -19 -1 -12 9 -13 9 -9 -3 3 -8 -2
-21 -11 -29 -13 -11 -18 -11 -21 -1 -3 6 -9 10 -14 6 -15 -9 -10 -22 9 -27 12
-3 13 -5 2 -6 -8 0 -26 9 -40 20 -22 18 -23 20 -5 16 11 -2 26 2 33 10 7 7 10
13 7 13 -4 0 0 6 8 14 15 15 56 10 92 -11 19 -11 19 -12 2 -30 -23 -26 -21
-41 6 -46 22 -3 22 -3 -3 -15 -29 -13 -70 -47 -70 -57 0 -4 15 -4 34 -1 20 4
37 2 41 -4 10 -16 -43 -58 -68 -54 -12 2 -16 2 -9 -2 17 -8 5 -24 -13 -17 -9
3 -15 -1 -15 -10 0 -8 -6 -17 -12 -20 -7 -2 -10 -8 -5 -12 4 -5 13 -3 19 3 17
17 28 15 21 -4 -3 -8 -15 -14 -27 -13 -11 1 -29 -1 -38 -5 -20 -9 -38 0 -38
19 0 8 -7 11 -20 8 -13 -3 -20 0 -21 8 -1 8 -5 3 -9 -11 l-8 -25 -7 23 c-4 12
-12 22 -17 22 -5 0 -6 -5 -2 -12 5 -8 2 -9 -10 -5 -10 4 -20 7 -22 7 -2 0 -4
7 -4 17 0 15 -2 15 -19 -1 -11 -10 -31 -19 -45 -20 -14 0 -26 -7 -26 -13 0 -7
-7 -13 -15 -13 -8 0 -15 7 -15 16 0 13 -3 14 -14 5 -7 -6 -20 -9 -28 -6 -10 4
-17 -1 -21 -15 -7 -29 -27 -16 -28 18 -1 25 -2 23 -15 -17 -3 -10 -8 -10 -18
-2 -7 6 -16 8 -19 5 -3 -4 -9 5 -13 20 -3 14 -10 23 -15 20 -5 -3 -12 2 -15
11 -5 12 -10 13 -20 4 -9 -7 -10 -17 -4 -35 5 -13 6 -24 2 -24 -16 1 -31 17
-37 43 -8 31 -21 35 -28 10 -4 -14 -5 -13 -6 3 -1 20 -19 35 -46 39 -5 0 -9 6
-8 13 2 6 -8 14 -22 18 -14 3 -25 11 -25 18 0 6 -5 4 -10 -4 -8 -13 -12 -12
-25 8 -9 12 -21 20 -26 17 -5 -4 -9 2 -9 12 -1 16 -3 15 -20 -6 -16 -19 -20
-20 -20 -6 0 11 -5 15 -15 11 -8 -3 -15 0 -15 6 0 6 -3 8 -6 5 -9 -8 -40 32
-46 58 -2 12 -10 19 -21 17 -11 -2 -17 4 -17 18 0 11 -7 20 -15 20 -9 0 -18
12 -22 30 -3 17 -8 28 -11 25 -3 -3 -14 2 -24 12 -29 26 -21 2 22 -62 22 -33
40 -68 40 -77 0 -10 4 -18 10 -18 13 0 60 -52 60 -67 0 -7 5 -13 10 -13 6 0
10 5 10 10 0 6 5 10 10 10 6 0 10 -7 10 -15 0 -8 -5 -15 -11 -15 -8 0 -8 -5 1
-15 7 -8 10 -22 6 -30 -3 -8 -1 -15 4 -15 5 0 11 8 14 18 2 9 4 0 3 -20 -1
-20 2 -40 6 -44 4 -4 7 -16 7 -26 0 -10 6 -18 13 -19 6 -1 1 -5 -13 -9 -21 -7
-18 -8 18 -9 29 -1 45 -6 49 -17 3 -9 2 -19 -3 -23 -13 -9 -17 -34 -4 -26 6 4
17 1 25 -5 12 -10 15 -9 15 3 0 27 15 27 43 1 15 -14 24 -30 21 -39 -4 -9 0
-15 9 -15 22 0 29 -28 9 -33 -14 -4 -13 -5 3 -6 11 0 26 -10 33 -21 7 -11 19
-20 27 -20 8 0 15 -4 15 -9 0 -5 10 -13 21 -16 17 -6 18 -9 8 -16 -19 -11 13
-23 46 -17 19 4 23 2 15 -7 -14 -17 12 -23 84 -20 31 2 59 -1 62 -6 3 -5 -14
-9 -38 -9 l-43 -1 24 -19 c18 -16 20 -20 7 -20 -10 0 -15 -4 -12 -9 3 -5 15
-7 25 -4 10 3 22 0 25 -6 4 -6 17 -11 29 -10 20 1 20 2 -3 9 -21 7 -16 8 25
11 l50 2 -52 6 c-44 5 -51 9 -43 21 9 13 11 13 19 1 7 -11 17 -12 49 -4 44 11
89 -3 84 -25 -1 -7 5 -12 14 -12 15 0 54 -35 54 -49 0 -3 15 -23 34 -45 19
-21 32 -44 29 -52 -3 -9 2 -14 16 -14 25 0 28 -25 4 -39 -10 -5 -18 -13 -18
-18 0 -4 -8 -8 -17 -7 -20 1 -25 -15 -5 -18 6 0 -8 -4 -33 -8 l-45 -7 44 -1
c45 -2 51 -13 9 -17 -35 -4 -35 -4 -42 -21 -5 -12 -2 -15 9 -10 9 3 13 2 10
-4 -3 -6 -21 -10 -38 -11 -29 -1 -29 -2 11 -11 34 -7 41 -12 32 -23 -6 -7 -26
-16 -46 -19 -19 -4 -32 -11 -29 -16 3 -4 -9 -13 -25 -19 -34 -11 -40 -31 -11
-31 24 0 25 -40 1 -41 -8 0 -4 -5 10 -10 36 -15 37 -19 10 -40 l-25 -19 35 5
c80 11 150 28 150 36 0 5 10 8 23 8 16 -1 18 -2 5 -6 -10 -2 -18 -11 -18 -19
0 -12 12 -14 58 -10 33 2 65 0 73 -5 10 -6 6 -9 -16 -9 -16 0 -37 -5 -45 -11
-12 -8 -10 -9 10 -5 14 3 35 6 48 6 13 0 22 6 22 15 0 8 5 15 10 15 6 0 10 -4
10 -10 0 -5 7 -10 16 -10 13 0 14 3 5 13 -12 15 -5 27 15 27 8 0 11 -6 8 -15
-5 -13 -2 -14 22 -5 16 6 31 14 34 18 12 16 63 33 73 23 5 -5 16 -7 23 -4 17
6 31 -8 69 -69 17 -27 33 -48 38 -48 4 0 7 -11 7 -24 0 -16 -12 -34 -32 -50
l-32 -25 24 -21 24 -21 -23 -42 c-34 -66 -46 -85 -64 -105 -10 -10 -17 -28
-17 -40 0 -12 -8 -23 -19 -27 -11 -3 -23 -15 -26 -26 -4 -10 -12 -19 -18 -19
-7 -1 -29 -25 -49 -55 l-37 -54 719 -1 c571 0 719 2 723 12 4 10 6 10 6 1 1
-10 125 -13 584 -13 453 0 586 3 596 13 11 9 13 9 7 0 -6 -10 66 -13 343 -13
l351 0 -1 690 c0 380 -2 690 -4 690 -2 0 -10 -7 -18 -15 -13 -13 -17 -12 -29
2 -7 9 -8 14 -2 10 14 -8 54 20 54 39 0 8 -5 12 -10 9 -6 -4 -8 -11 -5 -16 4
-5 1 -9 -4 -9 -17 0 -13 27 4 34 12 4 15 28 15 126 0 107 -2 120 -17 121 -10
1 -45 2 -79 3 -53 1 -65 5 -97 33 -38 33 -142 103 -154 103 -3 0 -14 6 -22 13
-33 28 -176 74 -376 121 -157 36 -181 39 -270 27 -90 -11 -127 -1 -180 48 -54
49 -66 55 -125 62 -41 5 -71 16 -104 38 -41 28 -60 34 -157 45 l-110 12 -57
56 c-108 104 -137 127 -232 181 -38 21 -48 34 -64 79 -14 39 -37 71 -86 119
-36 37 -72 74 -79 83 -11 13 -5 35 39 143 29 70 56 137 61 148 25 65 107 389
115 460 3 22 6 78 8 125 6 127 15 206 33 295 23 112 24 361 2 435 -9 30 -20
89 -23 130 -4 41 -13 102 -21 135 -20 86 -25 137 -18 163 5 22 6 22 26 -10
l20 -33 13 38 c8 21 16 62 19 90 3 29 11 87 17 129 12 81 12 83 -30 163 -9 17
-22 35 -30 41 -14 10 -14 70 0 174 2 8 -1 101 -6 206 -10 242 -9 246 96 268
40 8 129 20 198 26 69 6 135 16 148 21 26 10 38 37 58 132 14 66 13 71 -6 103
l-21 33 -67 -6 c-60 -5 -69 -3 -87 16 -18 20 -19 36 -17 174 2 146 4 161 54
362 28 116 55 212 58 215 4 3 7 12 8 20 1 20 27 115 57 210 13 41 26 113 30
160 3 47 13 105 22 130 11 32 16 90 17 200 2 128 6 167 24 225 13 39 26 77 31
85 5 9 12 31 15 50 4 19 11 44 16 55 5 11 14 32 20 48 14 40 32 33 59 -26 13
-29 29 -63 34 -75 l11 -24 9 29 c4 15 9 33 11 38 1 6 7 26 13 45 19 56 41 189
46 268 l4 72 -653 0 -653 0 -5 -42 c-5 -45 -15 -272 -22 -519 -5 -204 -60
-609 -90 -666 -15 -28 -20 -31 -48 -26 -17 3 -32 10 -34 15 -2 4 -10 8 -18 8
-8 0 -17 7 -20 15 -4 8 -12 15 -19 15 -8 0 -22 11 -33 25 -13 16 -28 24 -43
23 -20 -3 -24 1 -21 22 2 21 -4 29 -33 43 -20 9 -45 17 -55 17 -11 0 -20 7
-20 15 0 8 -12 18 -27 21 -49 11 -123 48 -123 61 0 8 -13 13 -30 13 -16 0 -30
-5 -30 -11 0 -6 -7 -3 -16 5 -8 9 -20 16 -25 16 -6 0 -8 4 -4 9 6 11 -60 35
-74 27 -5 -3 -16 5 -25 19 -9 14 -23 25 -31 25 -8 0 -15 4 -15 9 0 16 -40 23
-55 11 -8 -7 -15 -8 -15 -3 0 5 -6 10 -12 11 -44 5 -78 16 -78 23 0 5 -7 9
-15 9 -7 0 -18 6 -22 14 -10 17 -53 31 -53 17 0 -6 -4 -11 -9 -11 -5 0 -7 9
-4 20 3 11 0 26 -6 34 -7 8 -9 25 -5 41 l7 27 -31 -16 c-34 -18 -68 -21 -76
-7 -4 5 -24 12 -46 16 -22 4 -40 11 -40 16 0 5 -4 9 -10 9 -5 0 -9 -10 -7 -22
1 -12 -4 -23 -10 -24 -7 -1 -14 -2 -15 -4 -15 -12 -41 -5 -48 13 -5 12 -9 16
-9 9 -1 -7 -5 -10 -11 -7 -5 3 -10 2 -10 -3 0 -11 -30 -25 -37 -18 -3 2 0 14
6 25 9 16 8 28 -4 50 -8 17 -15 50 -15 76 0 25 -4 45 -8 45 -5 0 -9 -6 -10
-12 -2 -40 -23 -133 -31 -141 -20 -20 -26 25 -26 188 -1 94 -6 190 -11 215
-10 45 -1 110 15 110 4 0 7 34 7 75 l-1 75 -47 0 -48 0 0 -147 c0 -82 -7 -193
-15 -248 -9 -55 -17 -136 -18 -180 l-2 -80 30 2 c17 1 22 -1 13 -4 -10 -2 -18
-9 -18 -14 0 -5 -15 -25 -33 -44 -24 -26 -39 -33 -57 -30 -13 2 -29 0 -36 -6
-8 -7 -14 -7 -19 1 -3 5 -1 10 4 10 6 0 11 8 11 18 0 13 -2 14 -9 3 -6 -9 -10
-10 -16 -2 -3 7 -15 9 -26 6 -19 -6 -19 -7 -22 58 0 12 5 32 12 45 10 18 10
39 2 90 -6 37 -12 169 -14 294 l-2 228 -64 0 -64 0 6 -57z m817 -659 c0 -8 -5
-12 -10 -9 -6 4 -8 11 -5 16 9 14 15 11 15 -7z m-255 -3 c3 -5 1 -12 -5 -16
-5 -3 -10 1 -10 9 0 18 6 21 15 7z m105 5 c0 -3 -4 -8 -10 -11 -5 -3 -10 -1
-10 4 0 6 5 11 10 11 6 0 10 -2 10 -4z m50 -16 c0 -5 -4 -10 -10 -10 -5 0 -10
5 -10 10 0 6 5 10 10 10 6 0 10 -4 10 -10z m-791 -25 c2 -11 8 -23 14 -27 8
-5 8 -15 2 -34 -12 -33 -35 -44 -35 -16 0 11 4 22 10 24 14 5 0 48 -16 48 -8
0 -14 7 -14 16 0 23 34 13 39 -11z m48 5 c1 -11 -4 -20 -13 -20 -14 0 -19 21
-7 33 11 12 19 7 20 -13z m667 4 c9 -22 8 -24 -9 -18 -8 4 -15 12 -15 20 0 19
16 18 24 -2z m-276 -13 c28 -23 28 -31 0 -32 -22 -1 -22 -1 2 -9 14 -4 20 -8
13 -9 -6 -1 -19 -4 -29 -8 -12 -4 -15 -3 -10 5 4 7 1 12 -8 12 -9 0 -16 8 -15
18 0 10 3 12 6 5 7 -18 23 -16 23 2 0 8 -4 15 -10 15 -5 0 -10 5 -10 10 0 15
15 12 38 -9z m222 9 c0 -5 -4 -10 -10 -10 -5 0 -10 5 -10 10 0 6 5 10 10 10 6
0 10 -4 10 -10z m-416 -20 c11 -11 -2 -30 -20 -30 -18 0 -44 24 -44 39 0 12
48 5 64 -9z m626 10 c0 -5 -5 -10 -11 -10 -5 0 -7 5 -4 10 3 6 8 10 11 10 2 0
4 -4 4 -10z m-792 -35 c-3 -3 -9 2 -12 12 -6 14 -5 15 5 6 7 -7 10 -15 7 -18z
m242 15 c0 -5 -4 -10 -10 -10 -5 0 -10 5 -10 10 0 6 5 10 10 10 6 0 10 -4 10
-10z m305 -4 c12 -12 12 -15 0 -20 -8 -3 -15 -4 -15 -2 0 3 -3 11 -6 20 -8 20
3 21 21 2z m-289 -31 c-6 -22 -9 -25 -21 -15 -19 16 -19 30 0 30 8 0 15 5 15
12 0 6 3 9 6 5 4 -3 3 -18 0 -32z m-216 5 c0 -5 -7 -7 -15 -4 -8 4 -12 10 -9
15 6 11 24 2 24 -11z m670 5 c0 -8 -2 -15 -4 -15 -2 0 -6 7 -10 15 -3 8 -1 15
4 15 6 0 10 -7 10 -15z m64 -20 c-4 -8 -11 -15 -16 -15 -6 0 -5 6 2 15 7 8 14
15 16 15 2 0 1 -7 -2 -15z m-471 -38 c-3 -5 -9 -3 -14 4 -4 7 -5 17 -2 22 3 5
9 3 14 -4 4 -7 5 -17 2 -22z m44 17 c-3 -3 -12 -4 -19 -1 -8 3 -5 6 6 6 11 1
17 -2 13 -5z m43 -4 c0 -5 -4 -10 -10 -10 -5 0 -10 5 -10 10 0 6 5 10 10 10 6
0 10 -4 10 -10z m170 -16 c0 -8 -5 -12 -10 -9 -6 4 -8 11 -5 16 9 14 15 11 15
-7z m130 6 c0 -5 -4 -10 -10 -10 -5 0 -10 5 -10 10 0 6 5 10 10 10 6 0 10 -4
10 -10z m110 0 c0 -5 -4 -10 -10 -10 -5 0 -10 5 -10 10 0 6 5 10 10 10 6 0 10
-4 10 -10z m-620 -14 c0 -3 -4 -8 -10 -11 -5 -3 -10 -1 -10 4 0 6 5 11 10 11
6 0 10 -2 10 -4z m196 -33 c-11 -11 -17 4 -9 23 7 18 8 18 11 1 2 -10 1 -21
-2 -24z m134 23 c0 -7 -6 -19 -14 -25 -11 -9 -12 -6 -8 14 5 26 22 35 22 11z
m-550 -6 c0 -5 -4 -10 -10 -10 -5 0 -10 5 -10 10 0 6 5 10 10 10 6 0 10 -4 10
-10z m157 -12 c-3 -8 -6 -5 -6 6 -1 11 2 17 5 13 3 -3 4 -12 1 -19z m-507 -27
c-11 -29 -45 -50 -57 -37 -4 3 -1 6 5 6 7 0 12 7 12 16 0 10 6 14 15 10 10 -3
17 3 21 20 4 14 9 23 12 20 2 -3 -1 -19 -8 -35z m810 18 c0 -5 -4 -9 -10 -9
-5 0 -10 7 -10 16 0 8 5 12 10 9 6 -3 10 -10 10 -16z m340 12 c0 -6 -4 -13
-10 -16 -5 -3 -10 1 -10 9 0 9 5 16 10 16 6 0 10 -4 10 -9z m-38 -23 c-7 -7
-12 -8 -12 -2 0 14 12 26 19 19 2 -3 -1 -11 -7 -17z m234 6 c-3 -8 -1 -24 4
-34 8 -16 8 -18 -5 -14 -8 3 -13 10 -10 14 3 5 0 10 -7 12 -9 3 -8 9 2 21 19
21 24 21 16 1z m-994 -29 c-5 -44 -21 -46 -17 -2 3 38 3 37 13 37 4 0 6 -16 4
-35z m98 20 c0 -8 -4 -15 -10 -15 -5 0 -7 7 -4 15 4 8 8 15 10 15 2 0 4 -7 4
-15z m-292 -7 c-16 -5 -28 -14 -28 -19 0 -5 -4 -9 -10 -9 -5 0 -10 6 -10 14 0
15 20 23 55 24 15 0 13 -2 -7 -10z m622 4 c0 -15 -11 -21 -27 -15 -12 5 -12 7
-1 14 17 11 28 11 28 1z m-736 -23 c-8 -14 -24 -10 -24 6 0 9 6 12 15 9 8 -4
12 -10 9 -15z m771 2 c3 -5 1 -12 -5 -16 -5 -3 -10 1 -10 9 0 18 6 21 15 7z
m-295 -10 c0 -5 -7 -11 -15 -15 -15 -5 -20 5 -8 17 9 10 23 9 23 -2z m-430 -5
c0 -11 -19 -15 -25 -6 -3 5 1 10 9 10 9 0 16 -2 16 -4z m311 -34 c-4 -16 -15
-28 -27 -30 -18 -3 -18 -2 -1 8 9 6 17 22 17 36 0 14 4 23 9 20 5 -4 6 -18 2
-34z m252 5 c-3 -5 -10 -4 -15 1 -6 6 -7 16 -3 22 6 9 9 9 16 -1 4 -7 5 -17 2
-22z m527 17 c0 -8 -4 -12 -10 -9 -5 3 -10 10 -10 16 0 5 5 9 10 9 6 0 10 -7
10 -16z m-1190 -10 c0 -8 -5 -12 -10 -9 -6 4 -8 11 -5 16 9 14 15 11 15 -7z
m440 -4 c0 -5 -5 -10 -11 -10 -5 0 -7 5 -4 10 3 6 8 10 11 10 2 0 4 -4 4 -10z
m175 0 c-3 -5 -15 -10 -25 -10 -10 0 -22 -4 -25 -10 -3 -5 -13 -10 -21 -10
-20 0 -8 19 20 30 29 12 58 12 51 0z m-348 -6 c-3 -3 -12 -4 -19 -1 -8 3 -5 6
6 6 11 1 17 -2 13 -5z m38 -4 c3 -5 -1 -10 -10 -10 -9 0 -13 5 -10 10 3 6 8
10 10 10 2 0 7 -4 10 -10z m181 -18 c-18 -16 -18 -16 -6 6 6 13 14 21 18 18 3
-4 -2 -14 -12 -24z m463 7 c-16 -10 -23 -4 -14 10 3 6 11 8 17 5 6 -4 5 -9 -3
-15z m648 -1 c-3 -8 -6 -5 -6 6 -1 11 2 17 5 13 3 -3 4 -12 1 -19z m-1627 2
c0 -5 -4 -10 -10 -10 -5 0 -10 5 -10 10 0 6 5 10 10 10 6 0 10 -4 10 -10z
m120 0 c13 -8 12 -12 -4 -27 -18 -17 -19 -17 -12 2 6 16 5 18 -5 8 -7 -7 -20
-13 -28 -13 -11 0 -10 4 4 20 20 23 24 23 45 10z m647 -12 c-3 -8 -6 -5 -6 6
-1 11 2 17 5 13 3 -3 4 -12 1 -19z m-77 4 c0 -16 -22 -30 -40 -25 -26 7 -13
33 16 33 13 0 24 -4 24 -8z m130 -2 c0 -5 -4 -10 -9 -10 -6 0 -13 5 -16 10 -3
6 1 10 9 10 9 0 16 -4 16 -10z m397 -6 c-3 -3 -12 -4 -19 -1 -8 3 -5 6 6 6 11
1 17 -2 13 -5z m-1189 -27 c-2 -23 -21 -29 -46 -13 -6 4 -18 4 -24 0 -9 -5 -8
-2 1 9 10 13 17 15 27 6 11 -9 15 -7 20 5 9 24 24 19 22 -7z m148 -14 c-4 -15
-3 -29 4 -33 7 -4 8 -14 1 -31 -10 -24 -10 -24 -10 -1 -1 24 -16 30 -24 10 -2
-8 -8 -9 -13 -4 -5 5 -4 11 4 13 6 3 12 8 12 13 0 15 19 60 26 60 3 0 3 -12 0
-27z m654 1 c0 -14 -4 -23 -10 -19 -5 3 -10 15 -10 26 0 10 5 19 10 19 6 0 10
-12 10 -26z m240 6 c-8 -5 -17 -7 -19 -4 -3 3 1 9 9 14 8 5 17 7 19 4 3 -3 -1
-9 -9 -14z m-1003 4 c-3 -3 -12 -4 -19 -1 -8 3 -5 6 6 6 11 1 17 -2 13 -5z
m383 -15 c0 -11 -4 -18 -10 -14 -5 3 -7 12 -3 20 7 21 13 19 13 -6z m1415 11
c-3 -5 -10 -10 -16 -10 -5 0 -9 5 -9 10 0 6 7 10 16 10 8 0 12 -4 9 -10z
m-1495 -30 c0 -5 -4 -10 -10 -10 -5 0 -10 5 -10 10 0 6 5 10 10 10 6 0 10 -4
10 -10z m219 -13 c12 -15 12 -17 -3 -11 -9 3 -16 13 -16 22 0 8 1 13 3 11 1
-2 9 -12 16 -22z m581 13 c0 -5 -8 -10 -17 -10 -15 0 -16 2 -3 10 19 12 20 12
20 0z m-1087 -7 c-7 -2 -19 -2 -25 0 -7 3 -2 5 12 5 14 0 19 -2 13 -5z m445
-17 c0 -22 -2 -23 -16 -10 -13 14 -13 17 -1 25 8 5 15 9 15 9 1 0 2 -11 2 -24z
m138 -2 c-4 -9 -9 -15 -11 -12 -3 3 -3 13 1 22 4 9 9 15 11 12 3 -3 3 -13 -1
-22z m444 12 c0 -3 -4 -8 -10 -11 -5 -3 -10 -1 -10 4 0 6 5 11 10 11 6 0 10
-2 10 -4z m-1206 -21 c-9 -6 -28 -10 -43 -8 -25 4 -25 4 -7 -11 11 -9 23 -16
28 -16 4 0 8 -5 8 -10 0 -12 -41 7 -52 24 -16 23 -6 31 37 32 38 1 43 -1 29
-11z m459 2 c19 4 20 3 5 -6 -19 -13 -51 -4 -41 12 5 8 8 8 10 0 2 -6 14 -9
26 -6z m67 3 c0 -5 -4 -10 -10 -10 -5 0 -10 5 -10 10 0 6 5 10 10 10 6 0 10
-4 10 -10z m-360 -10 c-20 -13 -50 -13 -50 0 0 6 15 10 33 10 24 0 28 -3 17
-10z m667 -7 c-9 -9 -19 -14 -23 -11 -10 10 6 28 24 28 15 0 15 -1 -1 -17z
m-515 -25 c-8 -8 -9 -4 -5 13 4 13 8 18 11 10 2 -7 -1 -18 -6 -23z m233 13 c3
-5 1 -12 -5 -16 -5 -3 -10 1 -10 9 0 18 6 21 15 7z m-628 -12 c12 -12 7 -39
-7 -39 -4 0 -10 11 -12 25 -6 27 1 32 19 14z m115 2 c-8 -5 -15 -20 -15 -35
-1 -14 -8 -26 -14 -26 -7 0 -13 -4 -13 -10 0 -5 -4 -10 -10 -10 -18 0 -11 30
8 31 9 0 12 3 5 5 -24 10 6 54 37 54 12 0 12 -2 2 -9z m691 -11 c-3 -11 -7
-20 -9 -20 -2 0 -4 9 -4 20 0 11 4 20 9 20 5 0 7 -9 4 -20z m1032 10 c3 -5 1
-10 -4 -10 -6 0 -11 5 -11 10 0 6 2 10 4 10 3 0 8 -4 11 -10z m-1594 -9 c-10
-6 -11 -13 -2 -29 16 -31 13 -41 -4 -12 -12 21 -14 22 -15 6 0 -11 -3 -17 -6
-13 -12 12 6 57 24 57 13 0 14 -2 3 -9z m464 -1 c3 -5 -3 -10 -14 -10 -11 0
-23 5 -26 10 -3 6 3 10 14 10 11 0 23 -4 26 -10z m-520 -9 c3 -5 1 -12 -5 -16
-5 -3 -10 1 -10 9 0 18 6 21 15 7z m138 3 c-7 -3 -9 -12 -6 -20 3 -8 0 -14 -6
-14 -6 0 -11 9 -11 20 0 13 6 20 18 19 9 0 12 -3 5 -5z m1484 -16 c-3 -8 -6
-5 -6 6 -1 11 2 17 5 13 3 -3 4 -12 1 -19z m-1401 -20 c-7 -5 -7 -8 3 -8 8 0
12 -2 9 -5 -3 -3 -16 -1 -29 4 -17 7 -19 10 -7 10 12 1 15 6 11 18 -6 15 -5
16 9 3 11 -11 12 -17 4 -22z m424 12 c0 -5 -5 -10 -11 -10 -5 0 -7 5 -4 10 3
6 8 10 11 10 2 0 4 -4 4 -10z m-880 -20 c0 -5 -10 -10 -22 -10 -19 0 -20 2 -8
10 19 13 30 13 30 0z m755 -10 c3 -5 1 -10 -4 -10 -6 0 -11 5 -11 10 0 6 2 10
4 10 3 0 8 -4 11 -10z m425 6 c0 -3 -4 -8 -10 -11 -5 -3 -10 -1 -10 4 0 6 5
11 10 11 6 0 10 -2 10 -4z m57 -18 c-3 -8 -6 -5 -6 6 -1 11 2 17 5 13 3 -3 4
-12 1 -19z m-1277 -17 c0 -13 -2 -13 -9 -2 -6 9 -11 10 -15 2 -13 -20 -27 -12
-16 9 12 22 40 16 40 -9z m1105 19 c3 -5 -1 -10 -9 -10 -9 0 -16 5 -16 10 0 6
4 10 9 10 6 0 13 -4 16 -10z m766 -13 c-13 -13 -26 -3 -16 12 3 6 11 8 17 5 6
-4 6 -10 -1 -17z m-1367 -2 c3 -8 1 -15 -4 -15 -6 0 -10 7 -10 15 0 8 2 15 4
15 2 0 6 -7 10 -15z m53 9 c-3 -3 -12 -4 -19 -1 -8 3 -5 6 6 6 11 1 17 -2 13
-5z m-598 -57 c9 -3 -1 -5 -21 -6 -21 0 -38 4 -38 9 0 6 5 10 11 10 6 0 9 6 6
14 -3 8 -3 17 1 21 4 4 11 -5 16 -19 5 -14 17 -27 25 -29z m865 46 c-5 -5 -12
-12 -15 -16 -3 -5 -9 -2 -12 7 -5 12 0 16 15 16 12 0 17 -3 12 -7z m-734 -13
c17 -9 18 -41 2 -38 -22 2 -32 -4 -32 -21 0 -11 -3 -22 -8 -25 -4 -2 -7 13 -7
35 0 32 3 39 20 40 20 0 20 0 0 9 -11 5 -14 9 -7 9 7 1 22 -4 32 -9z m1110 6
c0 -2 -7 -9 -15 -16 -13 -11 -14 -10 -9 4 5 14 24 23 24 12z m1030 -14 c0 -10
-6 -19 -12 -19 -7 0 -22 -4 -33 -7 -15 -5 -15 -4 3 5 12 7 22 18 22 26 0 7 5
13 10 13 6 0 10 -8 10 -18z m-2050 -7 c-7 -8 -17 -12 -23 -8 -6 4 -3 9 9 14
27 11 28 11 14 -6z m2122 -7 c-7 -7 -12 -8 -12 -2 0 14 12 26 19 19 2 -3 -1
-11 -7 -17z m-1992 2 c0 -5 -5 -10 -11 -10 -5 0 -7 5 -4 10 3 6 8 10 11 10 2
0 4 -4 4 -10z m150 -10 c6 -11 8 -20 6 -20 -3 0 -10 9 -16 20 -6 11 -8 20 -6
20 3 0 10 -9 16 -20z m-256 -15 c-4 -8 -8 -15 -10 -15 -2 0 -4 7 -4 15 0 8 4
15 10 15 5 0 7 -7 4 -15z m62 -11 c-4 -9 -9 -15 -11 -12 -3 3 -3 13 1 22 4 9
9 15 11 12 3 -3 3 -13 -1 -22z m324 16 c0 -5 -5 -10 -11 -10 -5 0 -7 5 -4 10
3 6 8 10 11 10 2 0 4 -4 4 -10z m-570 -10 c0 -5 -4 -10 -10 -10 -5 0 -10 5
-10 10 0 6 5 10 10 10 6 0 10 -4 10 -10z m335 -2 c14 -6 25 -16 25 -21 0 -6
-3 -7 -7 -4 -3 4 -12 2 -20 -5 -11 -9 -12 -7 -7 7 6 14 4 16 -6 10 -8 -5 -11
-4 -6 3 3 5 0 13 -6 15 -7 3 -10 6 -6 6 4 1 19 -4 33 -11z m1255 2 c0 -5 -4
-10 -10 -10 -5 0 -10 5 -10 10 0 6 5 10 10 10 6 0 10 -4 10 -10z m-1180 -10
c0 -5 -4 -10 -10 -10 -5 0 -10 5 -10 10 0 6 5 10 10 10 6 0 10 -4 10 -10z
m-270 -16 c0 -8 -5 -12 -10 -9 -6 4 -8 11 -5 16 9 14 15 11 15 -7z m985 -2
c-3 -3 -11 0 -18 7 -9 10 -8 11 6 5 10 -3 15 -9 12 -12z m-45 4 c0 -2 -7 -9
-15 -16 -13 -11 -14 -10 -9 4 5 14 24 23 24 12z m420 -21 c0 -9 -55 4 -58 13
-2 8 5 9 27 1 17 -6 31 -12 31 -14z m-1393 9 c-3 -3 -12 -4 -19 -1 -8 3 -5 6
6 6 11 1 17 -2 13 -5z m-267 -13 c0 -11 -31 -24 -39 -16 -3 3 1 10 9 15 19 12
30 12 30 1z m330 -1 c0 -5 -4 -10 -10 -10 -5 0 -10 5 -10 10 0 6 5 10 10 10 6
0 10 -4 10 -10z m75 -11 c11 -16 1 -19 -13 -3 -7 8 -8 14 -3 14 5 0 13 -5 16
-11z m135 -9 c0 -5 -2 -10 -4 -10 -3 0 -8 5 -11 10 -3 6 -1 10 4 10 6 0 11 -4
11 -10z m-490 -10 c0 -5 -5 -10 -11 -10 -5 0 -7 5 -4 10 3 6 8 10 11 10 2 0 4
-4 4 -10z m110 6 c0 -11 -19 -15 -25 -6 -3 5 1 10 9 10 9 0 16 -2 16 -4z m135
-6 c-3 -5 -11 -10 -16 -10 -6 0 -7 5 -4 10 3 6 11 10 16 10 6 0 7 -4 4 -10z
m-295 -15 c0 -8 -5 -15 -11 -15 -5 0 -7 4 -4 10 3 6 -1 7 -9 4 -9 -3 -16 -1
-16 5 0 6 9 11 20 11 11 0 20 -7 20 -15z m340 5 c0 -5 -7 -10 -15 -10 -8 0
-15 5 -15 10 0 6 7 10 15 10 8 0 15 -4 15 -10z m134 -6 c9 -24 7 -42 -3 -26
-4 8 -11 13 -15 13 -22 -3 -25 1 -14 14 17 19 24 19 32 -1z m-379 -5 c18 -9
18 -9 -4 -5 -21 4 -23 2 -19 -25 5 -32 -3 -37 -21 -15 -9 11 -9 19 1 35 14 23
15 23 43 10z m476 -16 c-12 -20 -14 -14 -5 12 4 9 9 14 11 11 3 -2 0 -13 -6
-23z m-661 -3 c0 -5 -2 -10 -4 -10 -3 0 -8 5 -11 10 -3 6 -1 10 4 10 6 0 11
-4 11 -10z m341 -21 c9 0 10 -2 2 -5 -17 -8 -55 15 -47 28 5 7 11 6 19 -5 7
-10 18 -17 26 -18z m155 16 c-8 -8 -18 -15 -22 -15 -3 0 -1 7 6 15 7 8 17 15
22 15 5 0 3 -7 -6 -15z m561 -25 c-1 -11 -5 -20 -9 -20 -4 0 -8 9 -8 20 0 11
4 20 9 20 6 0 9 -9 8 -20z m-733 -34 c-6 -17 -34 -30 -34 -16 0 5 8 14 18 19
22 13 22 13 16 -3z m33 -5 c-3 -13 1 -22 12 -24 9 -3 4 -4 -11 -4 -25 1 -42
17 -18 17 6 0 9 3 9 8 -2 13 1 22 7 22 4 0 4 -9 1 -19z m-283 -6 c-4 -8 -12
-15 -19 -15 -7 0 -15 -10 -18 -22 -6 -21 -5 -22 7 -5 12 15 14 16 20 2 3 -8 1
-15 -3 -15 -5 0 -15 -2 -23 -5 -7 -3 -22 2 -33 10 -20 15 -20 16 0 13 12 -2
21 4 23 14 3 15 -2 17 -27 12 -22 -5 -31 -3 -31 6 0 9 13 11 45 8 24 -3 42 -2
39 3 -3 5 2 9 10 9 10 0 13 -6 10 -15z m44 -7 c7 -7 12 -21 12 -32 0 -17 -2
-18 -9 -6 -6 8 -7 18 -5 22 3 4 -2 8 -10 8 -9 0 -16 5 -16 10 0 14 13 13 28
-2z m29 -10 c-3 -8 -6 -5 -6 6 -1 11 2 17 5 13 3 -3 4 -12 1 -19z m277 -30 c7
-5 4 -8 -6 -8 -12 0 -18 7 -17 23 0 15 2 17 6 7 3 -8 11 -18 17 -22z m-451 5
c-11 -31 -25 -43 -47 -42 -18 1 -17 3 7 12 20 8 27 17 24 29 -3 11 0 18 9 18
8 0 11 -6 7 -17z m647 -3 c0 -5 -2 -10 -4 -10 -3 0 -8 5 -11 10 -3 6 -1 10 4
10 6 0 11 -4 11 -10z m-432 -20 c8 0 13 -3 9 -6 -10 -10 -48 7 -40 19 5 8 8 8
11 -1 2 -7 11 -12 20 -12z m858 -27 c2 -21 1 -24 -6 -13 -11 17 -14 57 -3 47
3 -4 8 -19 9 -34z m-1186 18 c0 -5 -7 -11 -15 -15 -8 -3 -15 -12 -15 -20 0
-14 -37 -33 -46 -23 -7 7 49 66 64 66 6 1 12 -3 12 -8z m150 -1 c12 -8 11 -10
-7 -10 -13 0 -23 5 -23 10 0 13 11 13 30 0z m97 3 c-9 -2 -15 -9 -12 -14 4 -5
2 -9 -3 -9 -6 0 -12 7 -16 15 -4 11 2 15 22 14 17 -1 20 -3 9 -6z m707 -18
c-4 -8 -10 -12 -15 -9 -11 6 -2 24 11 24 5 0 7 -7 4 -15z m536 -5 c0 -11 -7
-20 -15 -20 -27 0 -18 30 13 39 1 1 2 -8 2 -19z m-847 -10 c3 -11 1 -18 -4
-14 -5 3 -9 12 -9 20 0 20 7 17 13 -6z m-308 -9 c-3 -6 -11 -11 -17 -11 -6 0
-6 6 2 15 14 17 26 13 15 -4z m103 12 c-10 -2 -18 -9 -18 -14 0 -5 -5 -9 -11
-9 -8 0 -8 5 1 15 7 8 20 14 29 14 13 -1 13 -2 -1 -6z m69 1 c-3 -3 -12 -4
-19 -1 -8 3 -5 6 6 6 11 1 17 -2 13 -5z m-502 -14 c3 -5 -1 -10 -10 -10 -9 0
-13 5 -10 10 3 6 8 10 10 10 2 0 7 -4 10 -10z m497 -10 c10 0 18 -7 18 -15 0
-8 -5 -15 -11 -15 -5 0 -7 5 -4 10 4 6 3 10 -2 9 -14 -4 -43 13 -43 24 0 7 4
7 12 -1 7 -7 20 -12 30 -12z m-262 -10 c-7 -13 -16 -17 -28 -12 -16 6 -16 7 1
10 9 2 17 8 17 13 0 5 5 9 10 9 7 0 7 -6 0 -20z m457 14 c-3 -3 -12 -4 -19 -1
-8 3 -5 6 6 6 11 1 17 -2 13 -5z m140 -16 c-3 -8 -6 -5 -6 6 -1 11 2 17 5 13
3 -3 4 -12 1 -19z m40 16 c-3 -3 -12 -4 -19 -1 -8 3 -5 6 6 6 11 1 17 -2 13
-5z m253 -8 c0 -3 -4 -8 -10 -11 -5 -3 -10 -1 -10 4 0 6 5 11 10 11 6 0 10 -2
10 -4z m-1095 -16 c3 -5 -1 -10 -10 -10 -9 0 -13 5 -10 10 3 6 8 10 10 10 2 0
7 -4 10 -10z m282 -12 c-3 -8 -6 -5 -6 6 -1 11 2 17 5 13 3 -3 4 -12 1 -19z
m693 12 c0 -5 -4 -10 -10 -10 -5 0 -10 5 -10 10 0 6 5 10 10 10 6 0 10 -4 10
-10z m206 -40 c12 0 12 -2 2 -14 -19 -21 -28 -10 -27 32 2 30 3 32 6 10 3 -16
11 -28 19 -28z m-869 18 c-3 -8 -6 -5 -6 6 -1 11 2 17 5 13 3 -3 4 -12 1 -19z
m1258 12 c-3 -5 -11 -10 -16 -10 -6 0 -7 5 -4 10 3 6 11 10 16 10 6 0 7 -4 4
-10z m-1631 -15 c-4 -8 -11 -15 -16 -15 -6 0 -5 6 2 15 7 8 14 15 16 15 2 0 1
-7 -2 -15z m154 -43 c-11 -13 -14 -11 -19 9 -13 46 -9 55 11 30 17 -19 18 -26
8 -39z m281 22 c-12 -13 -29 -24 -37 -24 -9 0 -4 10 14 28 35 33 55 30 23 -4z
m-364 16 c3 -5 1 -10 -4 -10 -6 0 -11 5 -11 10 0 6 2 10 4 10 3 0 8 -4 11 -10z
m121 -11 c19 -22 19 -22 -3 -8 -13 8 -23 17 -23 21 0 12 6 9 26 -13z m304 11
c0 -5 -2 -10 -4 -10 -3 0 -8 5 -11 10 -3 6 -1 10 4 10 6 0 11 -4 11 -10z m490
0 c0 -5 -4 -10 -10 -10 -5 0 -10 5 -10 10 0 6 5 10 10 10 6 0 10 -4 10 -10z
m629 -19 c9 -6 10 -11 2 -15 -6 -4 -11 -2 -11 5 0 9 -3 9 -14 0 -9 -7 -17 -8
-20 -2 -3 5 0 12 6 14 19 8 22 8 37 -2z m-1159 -17 c0 -8 -5 -12 -10 -9 -6 4
-8 11 -5 16 9 14 15 11 15 -7z m1336 1 c14 -13 14 -15 1 -15 -9 0 -17 -6 -20
-12 -7 -22 -19 -1 -12 21 8 25 12 26 31 6z m104 -4 c0 -5 10 -11 22 -14 18 -5
19 -8 8 -21 -13 -16 -10 -18 24 -20 11 -1 21 -7 24 -15 3 -9 0 -11 -7 -6 -7 4
-26 1 -42 -5 -29 -12 -53 -6 -34 8 17 12 17 33 0 58 -8 13 -11 24 -5 24 5 0
10 -4 10 -9z m-1550 -11 c0 -5 -4 -10 -10 -10 -5 0 -10 5 -10 10 0 6 5 10 10
10 6 0 10 -4 10 -10z m645 0 c3 -5 1 -10 -4 -10 -6 0 -11 5 -11 10 0 6 2 10 4
10 3 0 8 -4 11 -10z m-975 -36 c0 -8 -5 -12 -10 -9 -6 4 -8 11 -5 16 9 14 15
11 15 -7z m348 -9 c-3 -3 -9 2 -12 12 -6 14 -5 15 5 6 7 -7 10 -15 7 -18z
m-438 1 c0 -24 -17 -28 -23 -6 -3 13 0 20 9 20 8 0 14 -6 14 -14z m410 5 c0
-6 -4 -13 -10 -16 -5 -3 -10 1 -10 9 0 9 5 16 10 16 6 0 10 -4 10 -9z m-50
-16 c-6 -8 -8 -20 -4 -27 6 -10 3 -9 -9 1 -24 19 -21 41 4 41 18 0 19 -3 9
-15z m-230 -16 c0 -5 -4 -9 -10 -9 -5 0 -10 7 -10 16 0 8 5 12 10 9 6 -3 10
-10 10 -16z m170 11 c0 -5 -4 -10 -10 -10 -5 0 -10 5 -10 10 0 6 5 10 10 10 6
0 10 -4 10 -10z m520 0 c0 -5 -4 -10 -10 -10 -5 0 -10 5 -10 10 0 6 5 10 10
10 6 0 10 -4 10 -10z m-885 -20 c3 -5 1 -10 -4 -10 -6 0 -11 5 -11 10 0 6 2
10 4 10 3 0 8 -4 11 -10z m27 -22 c-15 -15 -24 -6 -16 16 5 12 10 14 17 7 8
-8 8 -14 -1 -23z m193 22 c3 -5 1 -10 -4 -10 -6 0 -11 5 -11 10 0 6 2 10 4 10
3 0 8 -4 11 -10z m-93 -25 c-2 -14 -9 -25 -14 -25 -5 0 -7 3 -5 8 2 4 7 15 10
25 9 25 15 21 9 -8z m-32 -10 c0 -8 -4 -15 -10 -15 -5 0 -10 7 -10 15 0 8 5
15 10 15 6 0 10 -7 10 -15z m494 -10 c-4 -8 -14 -15 -23 -15 -14 1 -13 3 3 15
25 19 27 19 20 0z m-544 1 c0 -3 -4 -8 -10 -11 -5 -3 -10 -1 -10 4 0 6 5 11
10 11 6 0 10 -2 10 -4z m144 -5 c4 -5 -3 -7 -14 -4 -23 6 -26 13 -6 13 8 0 17
-4 20 -9z m146 -11 c0 -5 -7 -7 -15 -4 -8 4 -12 10 -9 15 6 11 24 2 24 -11z
m-110 6 c0 -3 -4 -8 -10 -11 -5 -3 -10 -1 -10 4 0 6 5 11 10 11 6 0 10 -2 10
-4z m-150 -17 c0 -5 -4 -8 -9 -4 -5 3 -12 1 -16 -5 -8 -13 -25 -13 -25 -1 0 8
16 16 43 20 4 0 7 -4 7 -10z m67 5 c-3 -3 -12 -4 -19 -1 -8 3 -5 6 6 6 11 1
17 -2 13 -5z m79 -22 c-16 -2 -32 0 -37 5 -5 5 7 7 29 4 34 -5 35 -6 8 -9z
m164 8 c0 -5 -4 -10 -9 -10 -6 0 -13 5 -16 10 -3 6 1 10 9 10 9 0 16 -4 16
-10z m-223 -6 c-3 -3 -12 -4 -19 -1 -8 3 -5 6 6 6 11 1 17 -2 13 -5z m-217
-14 c0 -5 5 -10 11 -10 5 0 7 4 4 10 -3 5 0 7 9 4 8 -3 17 -11 19 -19 4 -10
-3 -10 -34 -3 -38 10 -54 28 -24 28 8 0 15 -4 15 -10z m90 -21 c0 -6 -4 -7
-10 -4 -5 3 -10 11 -10 16 0 6 5 7 10 4 6 -3 10 -11 10 -16z m377 -15 c-7 -7
-37 7 -37 17 0 6 9 5 21 -1 11 -7 19 -14 16 -16z m-260 0 c-3 -3 -12 -4 -19
-1 -8 3 -5 6 6 6 11 1 17 -2 13 -5z m41 -6 c-2 -6 -10 -13 -16 -14 -7 -1 -8 0
-2 3 5 2 8 9 4 14 -3 5 0 9 6 9 7 0 10 -5 8 -12z m-202 -18 c-47 -24 -52 -24
-37 -7 6 8 8 17 4 20 -3 4 11 7 33 7 l39 -1 -39 -19z m314 16 c0 -3 -4 -8 -10
-11 -5 -3 -10 -1 -10 4 0 6 5 11 10 11 6 0 10 -2 10 -4z m-90 -72 c0 -2 -7 -4
-15 -4 -8 0 -15 4 -15 10 0 5 7 7 15 4 8 -4 15 -8 15 -10z m2470 12 c0 -3 -4
-8 -10 -11 -5 -3 -10 -1 -10 4 0 6 5 11 10 11 6 0 10 -2 10 -4z m-2607 -36
c-13 -5 -23 -15 -23 -21 0 -7 -2 -10 -5 -7 -12 11 9 38 29 37 21 0 21 0 -1 -9z
m-158 -40 c3 -5 1 -10 -4 -10 -6 0 -11 5 -11 10 0 6 2 10 4 10 3 0 8 -4 11
-10z m45 -43 c0 -5 -4 -5 -10 -2 -5 3 -10 14 -10 23 0 15 2 15 10 2 5 -8 10
-19 10 -23z m2647 27 c-3 -3 -12 -4 -19 -1 -8 3 -5 6 6 6 11 1 17 -2 13 -5z
m-2624 -19 c-3 -9 -8 -14 -10 -11 -3 3 -2 9 2 15 9 16 15 13 8 -4z m177 -11
c0 -8 -4 -12 -10 -9 -5 3 -10 10 -10 16 0 5 5 9 10 9 6 0 10 -7 10 -16z m-132
-30 c2 -14 1 -15 -6 -6 -5 7 -16 10 -25 6 -9 -3 -17 -2 -17 4 0 12 20 22 35
18 6 -2 11 -11 13 -22z m57 -4 c-3 -5 -10 -10 -16 -10 -5 0 -9 5 -9 10 0 6 7
10 16 10 8 0 12 -4 9 -10z m-175 -23 c0 -2 -10 -12 -21 -23 -22 -19 -22 -19
-8 4 12 19 29 30 29 19z m44 -28 c-8 -14 -34 -10 -34 5 0 9 7 12 20 9 11 -3
17 -9 14 -14z m66 11 c0 -5 -4 -10 -10 -10 -5 0 -10 5 -10 10 0 6 5 10 10 10
6 0 10 -4 10 -10z m55 -18 c-6 -7 -34 11 -29 19 3 5 11 3 19 -4 7 -6 12 -13
10 -15z m2463 -40 c2 -12 -1 -22 -7 -22 -6 0 -8 7 -5 15 4 8 1 15 -5 15 -6 0
-11 5 -11 11 0 20 25 3 28 -19z m-2648 -1 c0 -6 -4 -13 -10 -16 -5 -3 -10 1
-10 9 0 9 5 16 10 16 6 0 10 -4 10 -9z m85 -11 c3 -5 1 -10 -4 -10 -6 0 -11 5
-11 10 0 6 2 10 4 10 3 0 8 -4 11 -10z m-75 -30 c0 -5 -11 -9 -24 -8 -14 1
-22 6 -20 10 7 12 44 10 44 -2z m-70 -13 c0 -7 -9 -13 -20 -14 -25 -2 -27 14
-2 20 9 3 18 5 20 6 1 0 2 -5 2 -12z m2680 -17 c0 -5 -4 -10 -10 -10 -5 0 -10
5 -10 10 0 6 5 10 10 10 6 0 10 -4 10 -10z m-2640 -11 c0 6 10 11 23 10 15 0
17 -2 7 -6 -8 -3 -18 -10 -21 -16 -9 -12 -39 -2 -39 14 0 8 4 8 15 -1 10 -9
15 -9 15 -1z m120 -5 c0 -2 -7 -4 -15 -4 -8 0 -15 4 -15 10 0 5 7 7 15 4 8 -4
15 -8 15 -10z m-40 -25 c0 -6 -4 -7 -10 -4 -5 3 -10 11 -10 16 0 6 5 7 10 4 6
-3 10 -11 10 -16z m-80 -39 c0 -10 -6 -23 -14 -27 -7 -4 -16 -15 -19 -23 -3
-8 -6 -3 -6 14 -1 21 3 27 14 22 12 -4 14 0 11 19 -3 14 -1 23 5 20 5 -4 9
-15 9 -25z m190 -12 c0 -12 -1 -19 -3 -17 -1 2 -9 12 -16 22 -12 14 -11 17 3
17 10 0 16 -8 16 -22z m-20 -18 c0 -5 -4 -10 -9 -10 -6 0 -13 5 -16 10 -3 6 1
10 9 10 9 0 16 -4 16 -10z m2477 -142 c-3 -7 -5 -2 -5 12 0 14 2 19 5 13 2 -7
2 -19 0 -25z m-2640 -10 c-3 -8 -6 -5 -6 6 -1 11 2 17 5 13 3 -3 4 -12 1 -19z
m-7 -28 c0 -5 -5 -10 -11 -10 -5 0 -7 5 -4 10 3 6 8 10 11 10 2 0 4 -4 4 -10z
m-90 -34 c0 -3 -4 -8 -10 -11 -5 -3 -10 -1 -10 4 0 6 5 11 10 11 6 0 10 -2 10
-4z m2825 -76 c-3 -6 4 -14 17 -19 13 -6 19 -10 13 -11 -5 0 -3 -5 5 -10 11
-7 5 -8 -20 -4 -26 4 -31 3 -20 -5 13 -9 13 -11 -2 -11 -10 0 -18 6 -18 13 0
25 13 57 22 57 5 0 6 -5 3 -10z m-57 -11 c-2 -6 -7 -10 -11 -10 -4 1 -15 1
-24 1 -15 0 -16 2 -3 10 20 13 43 13 38 -1z m252 -66 c-1 -18 -18 -35 -24 -24
-4 6 -4 16 -1 21 7 12 25 13 25 3z m150 2 c0 -2 -9 -9 -20 -15 -16 -9 -20 -8
-20 5 0 8 9 15 20 15 11 0 20 -2 20 -5z m-128 -27 c-7 -7 -12 -8 -12 -2 0 14
12 26 19 19 2 -3 -1 -11 -7 -17z m-55 -184 c-3 -3 -12 -4 -19 -1 -8 3 -5 6 6
6 11 1 17 -2 13 -5z m-2884 -100 c13 -14 -6 -34 -27 -28 -18 6 -19 5 -7 -10 8
-9 9 -16 3 -16 -21 0 -24 21 -6 41 18 20 27 23 37 13z m2103 -21 c-4 -9 -1
-20 6 -25 9 -5 8 -8 -6 -8 -12 0 -16 -5 -12 -15 3 -9 0 -15 -8 -15 -8 0 -16 9
-19 20 -3 11 0 20 6 20 6 0 7 3 4 7 -8 7 11 33 25 33 6 0 7 -8 4 -17z m64 -17
c0 -11 -19 -15 -25 -6 -3 5 1 10 9 10 9 0 16 -2 16 -4z m635 -26 c-3 -5 -11
-10 -16 -10 -6 0 -7 5 -4 10 3 6 11 10 16 10 6 0 7 -4 4 -10z m-2835 -10 c0
-5 -7 -10 -15 -10 -8 0 -15 5 -15 10 0 6 7 10 15 10 8 0 15 -4 15 -10z m2767
4 c-3 -3 -12 -4 -19 -1 -8 3 -5 6 6 6 11 1 17 -2 13 -5z m-366 -27 c-10 -9
-11 -8 -5 6 3 10 9 15 12 12 3 -3 0 -11 -7 -18z m64 3 c3 -5 -1 -10 -9 -10 -9
0 -16 5 -16 10 0 6 4 10 9 10 6 0 13 -4 16 -10z m198 -7 c-7 -2 -19 -2 -25 0
-7 3 -2 5 12 5 14 0 19 -2 13 -5z m99 -13 c-12 -12 -41 -27 -63 -35 -49 -18
-49 -18 -49 -5 0 5 19 18 43 28 83 38 100 40 69 12z m73 0 c-3 -5 -10 -10 -16
-10 -5 0 -9 5 -9 10 0 6 7 10 16 10 8 0 12 -4 9 -10z m-368 -36 c-3 -3 -12 -4
-19 -1 -8 3 -5 6 6 6 11 1 17 -2 13 -5z m-54 -11 c-7 -2 -19 -2 -25 0 -7 3 -2
5 12 5 14 0 19 -2 13 -5z m192 -3 c19 -8 19 -9 -2 -9 -12 -1 -25 4 -28 9 -7
12 2 12 30 0z m25 -40 c0 -5 -5 -10 -11 -10 -5 0 -7 5 -4 10 3 6 8 10 11 10 2
0 4 -4 4 -10z m-85 -10 c-3 -5 -11 -10 -16 -10 -6 0 -7 5 -4 10 3 6 11 10 16
10 6 0 7 -4 4 -10z m-455 -30 c0 -11 -7 -20 -15 -20 -18 0 -19 6 -2 25 16 19
17 18 17 -5z m-1143 4 c-3 -3 -12 -4 -19 -1 -8 3 -5 6 6 6 11 1 17 -2 13 -5z
m198 -4 c-28 -12 -47 -12 -40 0 3 6 18 10 33 9 24 0 25 -1 7 -9z m-265 -12 c0
-5 10 -13 23 -18 17 -7 12 -9 -28 -8 -39 0 -45 2 -25 8 17 5 19 8 8 9 -10 1
-18 5 -18 10 0 6 9 9 20 8 11 -1 20 -5 20 -9z m510 8 c0 -2 -7 -6 -15 -10 -8
-3 -15 -1 -15 4 0 6 7 10 15 10 8 0 15 -2 15 -4z m-330 -16 c-20 -13 -43 -13
-35 0 3 6 16 10 28 10 18 0 19 -2 7 -10z m265 -20 c3 -6 -4 -10 -17 -10 -18 0
-20 2 -8 10 19 12 18 12 25 0z m-302 -7 c-7 -2 -19 -2 -25 0 -7 3 -2 5 12 5
14 0 19 -2 13 -5z m94 1 c-3 -3 -12 -4 -19 -1 -8 3 -5 6 6 6 11 1 17 -2 13 -5z
m161 -21 c-10 -2 -26 -2 -35 0 -10 3 -2 5 17 5 19 0 27 -2 18 -5z m442 -19 c0
-8 -4 -12 -10 -9 -5 3 -10 10 -10 16 0 5 5 9 10 9 6 0 10 -7 10 -16z m-1690
-44 c0 -5 -2 -10 -4 -10 -3 0 -8 5 -11 10 -3 6 -1 10 4 10 6 0 11 -4 11 -10z
m1719 -11 c-15 -9 -32 -2 -24 11 3 5 13 6 21 3 12 -4 13 -8 3 -14z m195 -34
c-7 -16 -32 -27 -45 -19 -14 8 1 26 17 20 8 -3 14 1 14 10 0 8 4 13 10 9 5 -3
7 -12 4 -20z m1833 -37 c-3 -7 -5 -2 -5 12 0 14 2 19 5 13 2 -7 2 -19 0 -25z
m-3687 2 c0 -5 -7 -7 -15 -4 -8 4 -12 10 -9 15 6 11 24 2 24 -11z m968 -2 c-2
-6 -10 -13 -16 -14 -7 -1 -8 0 -2 3 5 2 8 9 4 14 -3 5 0 9 6 9 7 0 10 -5 8
-12z m845 -68 c-3 -11 -13 -20 -22 -20 -14 0 -14 2 -1 10 8 5 11 10 7 10 -11
0 2 20 13 20 4 0 6 -9 3 -20z m917 0 c0 -5 -5 -10 -11 -10 -5 0 -7 5 -4 10 3
6 8 10 11 10 2 0 4 -4 4 -10z m-915 -41 c5 -5 0 -9 -15 -9 -37 0 -70 11 -70
22 0 12 70 1 85 -13z m80 11 c-3 -5 -10 -10 -16 -10 -5 0 -9 5 -9 10 0 6 7 10
16 10 8 0 12 -4 9 -10z m869 -15 l16 -25 -36 0 c-29 0 -35 3 -30 16 3 9 6 20
6 25 0 18 28 8 44 -16z m-1057 9 c-3 -3 -12 -4 -19 -1 -8 3 -5 6 6 6 11 1 17
-2 13 -5z m20 -20 c-3 -3 -12 -4 -19 -1 -8 3 -5 6 6 6 11 1 17 -2 13 -5z
m1167 -63 c4 -5 0 -12 -6 -15 -10 -5 -10 -7 0 -12 6 -3 12 -10 12 -15 0 -6 -4
-8 -9 -4 -5 3 -11 -7 -13 -22 -3 -29 -17 -35 -82 -34 -16 0 -26 -2 -22 -6 3
-3 -3 -13 -14 -20 -22 -16 -80 -9 -80 8 0 6 -4 8 -9 5 -5 -4 -20 -2 -33 3 -23
10 -23 10 5 10 35 1 93 41 75 53 -8 5 -3 8 15 8 15 0 27 5 27 11 0 7 10 9 24
7 17 -3 23 -1 19 8 -3 8 6 14 24 17 51 7 62 7 67 -2z m67 -49 c-7 -2 -21 -13
-29 -23 -18 -21 -46 -26 -40 -7 5 14 70 50 77 41 3 -3 0 -8 -8 -11z m-1961
-112 c0 -13 -7 -20 -18 -20 -11 0 -18 8 -19 20 -1 14 4 20 18 20 12 0 19 -7
19 -20z m35 10 c4 -6 14 -8 23 -6 10 3 24 1 32 -4 12 -8 11 -10 -7 -10 -13 0
-23 -6 -23 -12 0 -10 -2 -10 -9 0 -6 11 -11 10 -25 -3 -15 -15 -16 -14 -16 14
0 31 13 41 25 21z m285 -15 c0 -8 -2 -15 -4 -15 -2 0 -6 7 -10 15 -3 8 -1 15
4 15 6 0 10 -7 10 -15z m40 -21 c0 -8 -4 -14 -10 -14 -5 0 -10 4 -10 9 0 5 -3
18 -7 28 -6 16 -5 16 10 4 9 -7 17 -20 17 -27z m54 -10 c4 -10 0 -14 -12 -12
-19 3 -33 18 -26 30 7 10 31 -1 38 -18z m-124 6 c13 -8 13 -10 -2 -10 -9 0
-20 5 -23 10 -8 13 5 13 25 0z m1460 -10 c-20 -13 -33 -13 -25 0 3 6 14 10 23
10 15 0 15 -2 2 -10z m-1425 -10 c-3 -5 -14 -10 -23 -10 -15 0 -15 2 -2 10 20
13 33 13 25 0z m1189 -15 c-4 -8 -1 -15 5 -15 6 0 11 5 11 10 0 16 48 12 57
-5 5 -8 24 -15 43 -16 19 -2 40 -6 46 -11 8 -5 14 0 18 14 3 13 9 19 13 13 5
-5 17 -11 28 -12 11 -1 78 -10 148 -18 127 -16 217 -17 228 -2 11 15 169 10
185 -6 4 -4 20 -7 35 -7 45 0 78 -67 48 -97 -15 -15 -3 -33 21 -33 23 0 37
-20 21 -29 -13 -8 11 -33 42 -44 10 -4 15 -12 12 -17 -4 -6 -2 -17 4 -24 8 -9
7 -18 -4 -32 -8 -10 -15 -31 -15 -46 0 -15 -4 -30 -10 -33 -5 -3 -10 2 -10 12
0 13 -4 10 -15 -11 -17 -33 -19 -56 -5 -56 6 0 10 -4 10 -10 0 -5 -9 -10 -21
-10 -27 0 -19 -24 9 -28 12 -2 22 -8 22 -13 0 -6 -5 -7 -10 -4 -13 8 -37 -15
-41 -40 -2 -10 -12 -19 -21 -21 -19 -2 -24 11 -8 21 18 11 11 23 -10 18 -13
-3 -20 -14 -20 -28 0 -15 -8 -26 -20 -30 -11 -3 -20 -15 -20 -26 0 -10 -3 -18
-7 -18 -5 1 -16 1 -27 0 -15 -1 -16 -4 -6 -16 8 -9 8 -15 2 -15 -6 0 -18 -8
-28 -17 -16 -16 -16 -16 -10 5 6 19 4 22 -18 22 -14 0 -28 -4 -31 -10 -3 -5
-15 -10 -26 -10 -17 0 -24 -16 -20 -42 2 -12 -17 -9 -25 3 -3 6 0 15 7 20 8 5
9 9 3 9 -6 0 -19 -9 -29 -20 -10 -11 -24 -20 -32 -20 -7 0 -13 9 -13 20 0 13
-7 20 -20 20 -11 0 -20 5 -20 10 0 6 -10 10 -22 10 -18 0 -20 2 -9 9 12 8 12
12 -2 25 -11 11 -18 13 -23 5 -4 -7 -14 -4 -28 10 -49 49 -69 61 -94 54 -17
-4 -23 -2 -18 6 4 6 1 11 -9 11 -12 0 -15 6 -10 19 4 14 0 21 -15 26 -16 5
-19 10 -10 20 9 11 4 17 -22 31 l-33 17 30 13 30 13 -30 1 c-23 0 -27 3 -15
10 11 7 11 10 2 10 -15 0 -12 31 3 42 6 5 6 8 -2 8 -6 0 -15 -4 -18 -10 -8
-13 -25 -13 -25 1 0 5 5 7 10 4 6 -3 10 -1 10 4 0 9 -20 15 -41 13 -4 -1 -14
7 -24 18 -9 10 -22 17 -29 14 -18 -7 -17 38 1 51 14 11 13 13 -10 19 -19 4
-25 11 -20 23 4 10 2 14 -5 9 -6 -3 -13 -2 -17 4 -3 5 -17 7 -29 4 -20 -5 -24
-1 -30 26 -6 31 -7 31 -58 29 -36 -2 -52 1 -50 9 1 7 -2 12 -8 12 -16 0 -12
-18 8 -32 10 -7 21 -20 24 -29 5 -12 1 -15 -18 -11 -13 2 -24 10 -24 17 0 7
-12 22 -27 33 -24 18 -26 23 -14 34 12 11 13 10 8 -5 -6 -17 -6 -17 17 0 17
13 21 21 14 31 -8 9 -4 12 14 12 21 0 24 -4 22 -30 -2 -31 3 -34 30 -24 23 9
19 24 -6 25 -14 1 -6 5 20 12 39 11 41 13 22 25 -26 16 -26 32 0 32 23 0 25
10 8 29 -11 11 -10 13 4 8 10 -3 20 -2 23 3 10 16 25 11 19 -5z m161 5 c3 -5
1 -10 -4 -10 -6 0 -11 5 -11 10 0 6 2 10 4 10 3 0 8 -4 11 -10z m-1720 -90
c-3 -5 -10 -10 -16 -10 -5 0 -9 5 -9 10 0 6 7 10 16 10 8 0 12 -4 9 -10z
m1327 -42 c-7 -7 -12 -8 -12 -2 0 6 3 14 7 17 3 4 9 5 12 2 2 -3 -1 -11 -7
-17z m-1279 5 c-7 -2 -21 -2 -30 0 -10 3 -4 5 12 5 17 0 24 -2 18 -5z m1465
-45 c-7 -19 -43 -21 -58 -3 -11 13 -8 15 25 15 25 0 35 -4 33 -12z m-118 -77
c0 -11 -4 -10 -15 5 -8 10 -14 26 -14 34 0 11 3 10 14 -4 8 -11 15 -27 15 -35z
m113 31 c-10 -11 -22 -16 -27 -11 -12 11 2 29 25 29 18 0 18 -1 2 -18z m-103
-102 c0 -5 -4 -10 -10 -10 -5 0 -10 5 -10 10 0 6 5 10 10 10 6 0 10 -4 10 -10z
m610 -390 c0 -5 -2 -10 -4 -10 -3 0 -8 5 -11 10 -3 6 -1 10 4 10 6 0 11 -4 11
-10z m185 -30 c3 -5 1 -10 -4 -10 -6 0 -11 5 -11 10 0 6 2 10 4 10 3 0 8 -4
11 -10z m-60 -20 c3 -5 -1 -10 -10 -10 -9 0 -13 5 -10 10 3 6 8 10 10 10 2 0
7 -4 10 -10z m-1168 -382 c-3 -7 -5 -2 -5 12 0 14 2 19 5 13 2 -7 2 -19 0 -25z
m458 -78 c3 -5 1 -10 -4 -10 -6 0 -11 5 -11 10 0 6 2 10 4 10 3 0 8 -4 11 -10z
m85 -54 c0 -3 -4 -8 -10 -11 -5 -3 -10 -1 -10 4 0 6 5 11 10 11 6 0 10 -2 10
-4z m-1411 -155 c8 -5 9 -11 3 -15 -5 -3 -15 1 -22 9 -14 16 -3 20 19 6z m8
-123 c-3 -8 -6 -5 -6 6 -1 11 2 17 5 13 3 -3 4 -12 1 -19z m46 -15 c-7 -2 -19
-2 -25 0 -7 3 -2 5 12 5 14 0 19 -2 13 -5z m-46 -65 c-3 -8 -6 -5 -6 6 -1 11
2 17 5 13 3 -3 4 -12 1 -19z m1273 -949 c0 -5 -9 -9 -20 -9 -22 0 -27 16 -7
23 15 5 27 -1 27 -14z m33 -6 c-7 -2 -13 -13 -13 -23 0 -14 -6 -18 -25 -16
-36 4 -41 14 -11 22 14 3 26 10 26 15 0 5 8 9 18 8 10 0 12 -3 5 -6z m37 -3
c0 -5 -2 -10 -4 -10 -3 0 -8 5 -11 10 -3 6 -1 10 4 10 6 0 11 -4 11 -10z
m-175 -30 c-3 -5 -11 -10 -16 -10 -6 0 -7 5 -4 10 3 6 11 10 16 10 6 0 7 -4 4
-10z m167 -5 c0 -5 -5 -11 -11 -13 -6 -2 -11 4 -11 13 0 9 5 15 11 13 6 -2 11
-8 11 -13z m113 5 c3 -5 0 -10 -9 -10 -8 0 -16 -5 -18 -12 -3 -7 -7 -5 -11 6
-4 10 -3 15 3 11 6 -3 10 -1 10 4 0 14 17 14 25 1z m-385 -10 c13 -8 12 -10
-3 -10 -10 0 -27 -9 -39 -20 -12 -11 -24 -17 -27 -14 -3 3 -1 8 5 12 6 4 13
15 17 25 7 19 24 22 47 7z m203 -30 c-3 -11 -7 -20 -9 -20 -2 0 -4 9 -4 20 0
11 4 20 9 20 5 0 7 -9 4 -20z m141 -16 c9 -24 8 -25 -13 -12 -11 7 -17 16 -15
20 8 13 21 9 28 -8z m66 6 c0 -5 -7 -10 -16 -10 -8 0 -12 5 -9 10 3 6 10 10
16 10 5 0 9 -4 9 -10z m-110 -14 c0 -2 -3 -11 -6 -20 -9 -24 -33 -20 -27 4 4
16 33 30 33 16z m-340 -10 c0 -3 -4 -8 -10 -11 -5 -3 -10 -1 -10 4 0 6 5 11
10 11 6 0 10 -2 10 -4z m290 -6 c0 -5 -12 -10 -27 -9 l-28 1 25 8 c14 4 26 8
28 9 1 1 2 -3 2 -9z m175 0 c3 -5 -1 -10 -9 -10 -9 0 -16 5 -16 10 0 6 4 10 9
10 6 0 13 -4 16 -10z m-83 -28 c3 -10 -1 -23 -8 -30 -10 -9 -12 -6 -9 16 4 33
4 32 9 32 2 0 6 -8 8 -18z m48 8 c0 -5 -10 -10 -22 -10 -19 0 -20 2 -8 10 19
13 30 13 30 0z m-90 -24 c0 -2 -7 -6 -15 -10 -8 -3 -15 -1 -15 4 0 6 7 10 15
10 8 0 15 -2 15 -4z m87 -2 c-3 -3 -12 -4 -19 -1 -8 3 -5 6 6 6 11 1 17 -2 13
-5z m-17 -18 c0 -2 -7 -6 -15 -10 -8 -3 -15 -1 -15 4 0 6 7 10 15 10 8 0 15
-2 15 -4z m-123 -38 c-3 -7 -5 -2 -5 12 0 14 2 19 5 13 2 -7 2 -19 0 -25z
m-822 13 c3 -5 1 -12 -5 -16 -5 -3 -10 1 -10 9 0 18 6 21 15 7z m-145 -21
c-19 -13 -30 -13 -30 0 0 6 10 10 23 10 18 0 19 -2 7 -10z m44 -11 c-3 -6 0
-15 7 -20 11 -7 10 -9 -3 -9 -11 0 -18 8 -18 20 0 11 5 20 11 20 5 0 7 -5 3
-11z m-20 -45 c4 -11 1 -14 -11 -12 -10 2 -19 11 -21 21 -4 21 24 13 32 -9z
m543 20 c-3 -3 -12 -4 -19 -1 -8 3 -5 6 6 6 11 1 17 -2 13 -5z m348 -4 c8 -13
-5 -13 -25 0 -13 8 -13 10 2 10 9 0 20 -4 23 -10z m-855 -40 c0 -5 -5 -10 -11
-10 -5 0 -7 5 -4 10 3 6 8 10 11 10 2 0 4 -4 4 -10z m80 0 c0 -5 -4 -10 -10
-10 -5 0 -10 5 -10 10 0 6 5 10 10 10 6 0 10 -4 10 -10z m-63 -22 c-3 -8 -6
-5 -6 6 -1 11 2 17 5 13 3 -3 4 -12 1 -19z m300 0 c-3 -8 -6 -5 -6 6 -1 11 2
17 5 13 3 -3 4 -12 1 -19z m-237 -14 c0 -2 -7 -4 -15 -4 -8 0 -15 4 -15 10 0
5 7 7 15 4 8 -4 15 -8 15 -10z m-40 -4 c0 -5 -5 -10 -11 -10 -5 0 -7 5 -4 10
3 6 8 10 11 10 2 0 4 -4 4 -10z m87 -82 c-3 -8 -6 -5 -6 6 -1 11 2 17 5 13 3
-3 4 -12 1 -19z m4085 -60 c-7 -7 -12 -8 -12 -2 0 14 12 26 19 19 2 -3 -1 -11
-7 -17z m-3967 -18 c3 -5 1 -10 -4 -10 -6 0 -11 5 -11 10 0 6 2 10 4 10 3 0 8
-4 11 -10z m54 -67 c-10 -11 -14 -11 -20 -1 -10 17 -2 28 17 21 11 -4 12 -8 3
-20z m151 13 c0 -9 -40 -13 -46 -5 -3 5 6 9 20 9 14 0 26 -2 26 -4z m-113 -22
c-3 -3 -12 -4 -19 -1 -8 3 -5 6 6 6 11 1 17 -2 13 -5z m108 -34 c-3 -5 -10
-10 -16 -10 -5 0 -9 5 -9 10 0 6 7 10 16 10 8 0 12 -4 9 -10z m-68 -26 c-3 -3
-12 -4 -19 -1 -8 3 -5 6 6 6 11 1 17 -2 13 -5z m3550 -26 c-3 -8 -6 -5 -6 6
-1 11 2 17 5 13 3 -3 4 -12 1 -19z m131 -63 c-3 -3 -9 2 -12 12 -6 14 -5 15 5
6 7 -7 10 -15 7 -18z m-53 -55 c3 -5 1 -10 -4 -10 -6 0 -11 5 -11 10 0 6 2 10
4 10 3 0 8 -4 11 -10z m-424 -143 c-10 -9 -11 -8 -5 6 3 10 9 15 12 12 3 -3 0
-11 -7 -18z m633 -2 c-4 -8 -11 -15 -16 -15 -6 0 -5 6 2 15 7 8 14 15 16 15 2
0 1 -7 -2 -15z m-34 -49 c0 -3 -4 -8 -10 -11 -5 -3 -10 -1 -10 4 0 6 5 11 10
11 6 0 10 -2 10 -4z m-3160 -176 c0 -5 -4 -10 -9 -10 -5 0 -18 -3 -28 -6 -16
-6 -16 -5 2 9 23 19 35 21 35 7z m-75 -40 c3 -5 1 -10 -4 -10 -6 0 -11 5 -11
10 0 6 2 10 4 10 3 0 8 -4 11 -10z m3260 -100 c-3 -5 -11 -10 -16 -10 -6 0 -7
5 -4 10 3 6 11 10 16 10 6 0 7 -4 4 -10z m-875 -24 c0 -2 -7 -7 -16 -10 -8 -3
-12 -2 -9 4 6 10 25 14 25 6z m-2290 -380 c0 -3 -4 -8 -10 -11 -5 -3 -10 -1
-10 4 0 6 5 11 10 11 6 0 10 -2 10 -4z m-64 -83 c-10 -10 -19 5 -10 18 6 11 8
11 12 0 2 -7 1 -15 -2 -18z"/>
<path d="M4855 4562 c-36 -7 -43 -25 -8 -20 18 2 34 0 36 -6 2 -6 18 -1 38 12
19 12 27 22 19 22 -9 0 -21 -5 -28 -12 -7 -7 -15 -8 -24 -1 -7 5 -22 8 -33 5z"/>
<path d="M4935 4530 c-3 -5 -1 -10 4 -10 6 0 11 5 11 10 0 6 -2 10 -4 10 -3 0
-8 -4 -11 -10z"/>
<path d="M4800 4496 c6 -8 18 -12 26 -9 23 9 16 23 -12 23 -22 0 -24 -2 -14
-14z"/>
<path d="M4784 4342 c3 -3 20 -7 38 -9 17 -2 28 0 24 4 -3 4 -20 8 -37 9 -17
1 -28 0 -25 -4z"/>
<path d="M4550 4270 c-13 -8 -12 -10 3 -10 9 0 17 5 17 10 0 12 -1 12 -20 0z"/>
<path d="M4808 3933 c7 -3 16 -2 19 1 4 3 -2 6 -13 5 -11 0 -14 -3 -6 -6z"/>
<path d="M4850 3876 c0 -2 7 -7 16 -10 8 -3 12 -2 9 4 -6 10 -25 14 -25 6z"/>
<path d="M5073 3755 c-7 -20 0 -27 20 -19 25 9 30 34 6 34 -11 0 -22 -7 -26
-15z"/>
<path d="M4188 8323 c-1 -38 -1 -93 1 -124 1 -31 -5 -85 -14 -120 -11 -40 -19
-119 -21 -209 l-4 -146 27 2 c16 1 31 3 34 3 20 3 28 83 33 321 3 146 9 282
12 303 l6 37 -36 0 -36 0 -2 -67z"/>
<path d="M7670 8388 c-1 -2 -7 -55 -15 -118 -7 -63 -23 -186 -35 -273 -22
-166 -30 -330 -17 -343 13 -13 67 48 67 75 0 14 7 39 15 54 8 16 19 64 25 108
5 44 14 87 19 97 5 9 12 38 16 65 4 26 11 50 16 53 5 3 9 15 9 27 0 17 -2 19
-9 8 -14 -21 -3 64 15 118 8 25 14 64 14 88 l0 43 -60 0 c-33 0 -60 -1 -60 -2z"/>
<path d="M3965 8352 c-17 -23 -20 -43 -20 -132 0 -88 -3 -111 -20 -135 -14
-23 -20 -53 -23 -122 -2 -51 -1 -104 2 -118 6 -22 11 -25 55 -25 l49 0 6 43
c10 74 9 180 -4 229 -12 45 -10 101 6 162 5 21 3 31 -8 37 -10 5 -14 18 -11
33 3 13 1 31 -4 39 -6 12 -12 10 -28 -11z"/>
<path d="M3352 8020 c0 -14 2 -19 5 -12 2 6 2 18 0 25 -3 6 -5 1 -5 -13z"/>
<path d="M7570 7510 c-17 -32 0 -45 42 -32 18 6 60 14 93 18 49 6 55 8 36 15
-12 5 -53 12 -91 15 -63 6 -69 5 -80 -16z"/>
<path d="M2875 7510 c3 -5 8 -10 11 -10 2 0 4 5 4 10 0 6 -5 10 -11 10 -5 0
-7 -4 -4 -10z"/>
<path d="M6420 7366 c0 -9 5 -16 10 -16 6 0 10 4 10 9 0 6 -4 13 -10 16 -5 3
-10 -1 -10 -9z"/>
<path d="M2838 7353 c7 -3 16 -2 19 1 4 3 -2 6 -13 5 -11 0 -14 -3 -6 -6z"/>
<path d="M3770 6651 c0 -6 9 -9 19 -8 11 0 17 5 15 9 -7 11 -34 10 -34 -1z"/>
<path d="M4055 6590 c-3 -5 1 -10 9 -10 9 0 16 5 16 10 0 6 -4 10 -9 10 -6 0
-13 -4 -16 -10z"/>
<path d="M4152 6535 c-11 -12 -10 -15 3 -15 8 0 15 7 15 15 0 18 -2 18 -18 0z"/>
<path d="M4346 6541 c-4 -7 -5 -15 -2 -18 9 -9 19 4 14 18 -4 11 -6 11 -12 0z"/>
<path d="M4294 6528 c-3 -4 4 -8 15 -8 12 0 21 4 21 8 0 5 -7 9 -15 9 -9 0
-18 -4 -21 -9z"/>
<path d="M4385 6510 c-3 -5 -1 -10 4 -10 6 0 11 5 11 10 0 6 -2 10 -4 10 -3 0
-8 -4 -11 -10z"/>
<path d="M4270 6475 c0 -14 7 -28 16 -32 19 -7 41 11 25 21 -6 4 -11 2 -11 -3
0 -6 -5 -11 -11 -11 -7 0 -9 10 -5 25 4 14 2 25 -4 25 -5 0 -10 -11 -10 -25z"/>
<path d="M4008 6464 c-5 -4 -8 -15 -8 -25 0 -9 -6 -20 -12 -22 -8 -4 -9 -6 -2
-6 17 -1 36 26 32 44 -2 9 -6 13 -10 9z"/>
<path d="M3875 6410 c-3 -5 -1 -10 4 -10 6 0 11 5 11 10 0 6 -2 10 -4 10 -3 0
-8 -4 -11 -10z"/>
<path d="M4228 6393 c6 -2 18 -2 25 0 6 3 1 5 -13 5 -14 0 -19 -2 -12 -5z"/>
<path d="M2620 6360 c0 -5 5 -10 10 -10 6 0 10 5 10 10 0 6 -4 10 -10 10 -5 0
-10 -4 -10 -10z"/>
<path d="M1909 5959 c-8 -17 -8 -24 3 -35 11 -11 13 -8 15 21 3 40 -2 44 -18
14z"/>
<path d="M4450 5890 c0 -5 5 -10 10 -10 6 0 10 5 10 10 0 6 -4 10 -10 10 -5 0
-10 -4 -10 -10z"/>
<path d="M2086 5815 c-3 -9 0 -15 9 -15 9 0 12 6 9 15 -4 8 -7 15 -9 15 -2 0
-5 -7 -9 -15z"/>
<path d="M4458 5823 c7 -3 16 -2 19 1 4 3 -2 6 -13 5 -11 0 -14 -3 -6 -6z"/>
<path d="M4380 5800 c-9 -6 -10 -10 -3 -10 6 0 15 5 18 10 8 12 4 12 -15 0z"/>
<path d="M2201 5724 c0 -11 3 -14 6 -6 3 7 2 16 -1 19 -3 4 -6 -2 -5 -13z"/>
<path d="M2220 5705 c0 -14 2 -25 4 -25 2 0 6 11 8 25 3 14 1 25 -3 25 -5 0
-9 -11 -9 -25z"/>
<path d="M4520 5700 c0 -5 5 -10 10 -10 6 0 10 5 10 10 0 6 -4 10 -10 10 -5 0
-10 -4 -10 -10z"/>
<path d="M1895 5640 c-3 -5 -1 -10 4 -10 6 0 11 5 11 10 0 6 -2 10 -4 10 -3 0
-8 -4 -11 -10z"/>
<path d="M4560 5637 c0 -8 -10 -18 -22 -20 l-23 -4 23 -2 c22 -1 41 23 28 36
-3 4 -6 -1 -6 -10z"/>
<path d="M2108 5615 c-7 -8 3 -54 13 -61 11 -7 12 36 1 54 -5 7 -11 10 -14 7z"/>
<path d="M4516 5581 c-3 -5 3 -11 15 -14 16 -4 18 -3 8 9 -13 16 -16 17 -23 5z"/>
<path d="M4659 5538 c-12 -22 -12 -22 -19 -3 -8 20 -8 20 -16 1 -5 -13 -3 -21
4 -24 7 -2 12 -10 12 -18 0 -8 9 -14 20 -14 11 0 20 -7 20 -15 0 -8 9 -15 20
-15 26 0 25 7 -2 31 -13 10 -18 18 -11 19 6 0 15 -4 18 -10 3 -5 10 -10 16
-10 14 0 11 28 -3 32 -7 3 -13 13 -13 24 0 27 -31 29 -46 2z"/>
<path d="M2070 5520 c0 -6 7 -10 15 -10 8 0 15 2 15 4 0 2 -7 6 -15 10 -8 3
-15 1 -15 -4z"/>
<path d="M4728 5523 c7 -3 16 -2 19 1 4 3 -2 6 -13 5 -11 0 -14 -3 -6 -6z"/>
<path d="M271 5370 c-4 -179 -2 -183 73 -174 71 9 80 16 115 86 36 71 37 78
14 78 -36 0 -93 21 -120 44 -16 13 -34 44 -42 70 -25 85 -36 56 -40 -104z"/>
<path d="M4968 5483 c6 -2 18 -2 25 0 6 3 1 5 -13 5 -14 0 -19 -2 -12 -5z"/>
<path d="M4858 5473 c7 -3 16 -2 19 1 4 3 -2 6 -13 5 -11 0 -14 -3 -6 -6z"/>
<path d="M4365 5440 c-3 -11 -11 -20 -16 -20 -6 0 -8 -4 -4 -10 10 -16 33 0
38 26 5 29 -9 32 -18 4z"/>
<path d="M3942 5430 c0 -14 2 -19 5 -12 2 6 2 18 0 25 -3 6 -5 1 -5 -13z"/>
<path d="M4870 5440 c0 -6 7 -10 15 -10 8 0 15 2 15 4 0 2 -7 6 -15 10 -8 3
-15 1 -15 -4z"/>
<path d="M3968 5433 c7 -3 16 -2 19 1 4 3 -2 6 -13 5 -11 0 -14 -3 -6 -6z"/>
<path d="M4637 5419 c-4 -16 -3 -18 9 -8 7 6 11 15 8 20 -8 13 -11 11 -17 -12z"/>
<path d="M4480 5388 c0 -30 15 -54 24 -39 4 6 2 11 -3 11 -6 0 -11 5 -11 11 0
6 8 8 18 5 9 -3 24 -1 32 4 12 8 11 10 -7 10 -12 0 -25 5 -28 10 -11 18 -25
11 -25 -12z"/>
<path d="M4010 5382 c-19 -15 -21 -22 -12 -38 11 -18 11 -18 12 5 0 13 8 30
18 37 9 7 14 14 11 14 -4 0 -17 -8 -29 -18z"/>
<path d="M4235 5379 c-4 -6 -5 -12 -2 -15 2 -3 7 2 10 11 7 17 1 20 -8 4z"/>
<path d="M2050 5340 c0 -5 5 -10 11 -10 5 0 7 5 4 10 -3 6 -8 10 -11 10 -2 0
-4 -4 -4 -10z"/>
<path d="M4067 5333 c-4 -3 -7 -11 -7 -17 0 -6 5 -5 12 2 6 6 9 14 7 17 -3 3
-9 2 -12 -2z"/>
<path d="M3990 5299 c0 -5 5 -7 10 -4 6 3 10 8 10 11 0 2 -4 4 -10 4 -5 0 -10
-5 -10 -11z"/>
<path d="M3960 5268 c0 -7 5 -20 10 -28 8 -12 10 -9 10 13 0 15 -4 27 -10 27
-5 0 -10 -6 -10 -12z"/>
<path d="M3831 5254 c0 -11 3 -14 6 -6 3 7 2 16 -1 19 -3 4 -6 -2 -5 -13z"/>
<path d="M4005 5240 c3 -5 8 -10 11 -10 2 0 4 5 4 10 0 6 -5 10 -11 10 -5 0
-7 -4 -4 -10z"/>
<path d="M4480 5234 c0 -8 5 -12 10 -9 6 4 8 11 5 16 -9 14 -15 11 -15 -7z"/>
<path d="M4044 5227 c-8 -9 -7 -16 3 -25 11 -11 13 -8 13 13 0 28 -1 29 -16
12z"/>
<path d="M3912 5200 c0 -14 2 -19 5 -12 2 6 2 18 0 25 -3 6 -5 1 -5 -13z"/>
<path d="M3870 5140 c-17 -16 -25 -30 -18 -30 9 0 9 -3 -2 -10 -12 -8 -10 -10
9 -10 13 0 21 3 18 7 -11 11 14 32 30 26 12 -5 15 -2 11 9 -4 9 -1 21 5 27 8
8 7 11 -6 11 -9 0 -30 -13 -47 -30z"/>
<path d="M2100 5129 c0 -17 4 -28 10 -24 6 3 10 17 10 31 0 13 -4 24 -10 24
-5 0 -10 -14 -10 -31z"/>
<path d="M3975 5153 c11 -3 24 -10 28 -17 6 -7 7 -6 4 4 -2 8 -14 16 -28 17
-19 1 -20 1 -4 -4z"/>
<path d="M3951 5111 c23 -19 24 -19 5 -40 -24 -26 -61 -29 -52 -4 6 14 3 14
-16 -3 -36 -33 -44 -35 -73 -20 -37 19 -60 11 -37 -13 9 -9 20 -13 23 -8 4 5
17 6 29 2 13 -4 33 -2 46 6 28 15 42 6 24 -16 -10 -12 -10 -15 4 -15 9 0 16 7
16 15 0 20 37 38 66 31 23 -6 24 -5 14 14 -7 13 -7 20 -1 20 6 0 8 7 5 15 -4
8 -14 15 -24 15 -11 0 -22 5 -25 10 -3 6 -11 10 -17 10 -5 0 0 -9 13 -19z"/>
<path d="M4047 5113 c-10 -9 -9 -23 2 -23 5 0 11 7 15 15 5 15 -5 20 -17 8z"/>
<path d="M2048 5070 c2 -16 7 -30 11 -30 4 0 6 14 3 30 -2 17 -7 30 -11 30 -4
0 -6 -13 -3 -30z"/>
<path d="M3720 5079 c0 -5 5 -7 10 -4 6 3 10 8 10 11 0 2 -4 4 -10 4 -5 0 -10
-5 -10 -11z"/>
<path d="M3925 5080 c-3 -5 1 -10 9 -10 9 0 16 5 16 10 0 6 -4 10 -9 10 -6 0
-13 -4 -16 -10z"/>
<path d="M3676 5044 c-5 -14 -4 -15 9 -4 17 14 19 20 6 20 -5 0 -12 -7 -15
-16z"/>
<path d="M2075 4997 c-4 -10 -5 -21 -1 -24 10 -10 18 4 13 24 -4 17 -4 17 -12
0z"/>
<path d="M3815 5000 c-3 -5 -1 -10 4 -10 6 0 11 5 11 10 0 6 -2 10 -4 10 -3 0
-8 -4 -11 -10z"/>
<path d="M3973 5002 c-7 -5 -9 -13 -3 -21 7 -12 11 -12 24 2 9 8 16 18 16 21
0 8 -23 7 -37 -2z"/>
<path d="M3870 4970 c-20 -12 -10 -19 14 -10 11 3 15 9 10 13 -6 3 -16 2 -24
-3z"/>
<path d="M2660 4960 c-18 -12 -2 -12 25 0 13 6 15 9 5 9 -8 0 -22 -4 -30 -9z"/>
<path d="M3922 4958 c-15 -15 -15 -35 0 -44 6 -4 8 -3 4 4 -3 6 1 17 9 25 8 9
15 18 15 21 0 10 -15 7 -28 -6z"/>
<path d="M2650 4910 c0 -5 5 -10 11 -10 5 0 7 5 4 10 -3 6 -8 10 -11 10 -2 0
-4 -4 -4 -10z"/>
<path d="M2718 4903 c6 -2 18 -2 25 0 6 3 1 5 -13 5 -14 0 -19 -2 -12 -5z"/>
<path d="M2983 4795 c0 -8 4 -12 9 -9 5 3 6 10 3 15 -9 13 -12 11 -12 -6z"/>
<path d="M1910 4665 c-14 -17 -9 -85 9 -125 33 -74 78 -145 94 -148 10 -2 17
3 17 11 0 8 7 20 15 27 8 7 15 25 15 41 0 18 8 34 20 41 11 7 20 19 20 26 0
21 -92 114 -127 128 -41 18 -48 17 -63 -1z"/>
<path d="M2838 4443 c7 -3 16 -2 19 1 4 3 -2 6 -13 5 -11 0 -14 -3 -6 -6z"/>
<path d="M2348 4433 c7 -3 16 -2 19 1 4 3 -2 6 -13 5 -11 0 -14 -3 -6 -6z"/>
<path d="M2746 4423 c-6 -14 -5 -15 5 -6 7 7 10 15 7 18 -3 3 -9 -2 -12 -12z"/>
<path d="M2143 4423 c-16 -6 -17 -34 -1 -68 17 -37 23 -31 25 25 2 49 0 53
-24 43z"/>
<path d="M2403 4423 c15 -2 39 -2 55 0 15 2 2 4 -28 4 -30 0 -43 -2 -27 -4z"/>
<path d="M4235 4259 c-4 -6 -5 -12 -2 -15 2 -3 7 2 10 11 7 17 1 20 -8 4z"/>
<path d="M7640 3875 c-14 -8 -51 -20 -83 -26 -43 -9 -64 -19 -82 -41 -32 -38
-31 -52 5 -78 52 -37 246 -64 291 -40 19 10 27 50 11 50 -5 0 -21 26 -37 58
-45 93 -59 103 -105 77z"/>
<path d="M7050 3794 c-36 -10 -64 -25 -83 -45 -43 -46 -11 -69 40 -29 14 11
31 20 38 20 7 0 23 8 36 19 13 10 32 20 42 22 10 2 19 8 20 13 3 15 -35 15
-93 0z"/>
<path d="M3190 3670 c0 -5 -8 -10 -18 -10 -11 0 -28 -8 -40 -17 -11 -10 -29
-24 -41 -32 -11 -8 -18 -18 -15 -23 3 -4 -4 -8 -16 -8 -11 0 -28 -9 -37 -20
-10 -11 -24 -20 -33 -20 -8 0 -21 -14 -29 -31 -8 -18 -18 -28 -27 -25 -7 3
-16 1 -20 -5 -4 -7 -10 -7 -18 0 -15 12 -41 -3 -32 -18 4 -6 13 -9 19 -5 7 3
4 -1 -6 -10 -11 -8 -25 -12 -33 -9 -8 3 -14 0 -14 -7 0 -9 -3 -10 -13 -1 -16
12 -27 5 -27 -17 0 -8 -8 -21 -17 -29 -24 -18 -99 -53 -115 -53 -8 0 -7 -6 5
-17 13 -13 20 -14 29 -5 15 15 28 16 28 2 0 -6 -8 -14 -17 -17 -10 -4 -28 -17
-40 -30 -12 -13 -26 -24 -30 -25 -23 -4 -43 -11 -43 -15 0 -8 25 -29 40 -36
10 -3 8 -6 -7 -6 -17 -1 -22 -6 -20 -22 4 -22 26 -41 38 -33 4 2 10 -5 14 -16
7 -23 21 -26 28 -7 3 6 6 -3 6 -20 1 -23 6 -33 17 -33 11 0 14 6 9 20 -6 18
-3 20 17 16 68 -14 98 -16 98 -6 0 10 -19 14 -53 10 -13 -1 -18 4 -15 17 2 13
11 17 31 15 21 -3 26 0 21 12 -3 9 -1 16 5 16 6 0 11 -4 11 -10 0 -24 17 -6
39 40 13 28 28 50 33 50 9 0 132 122 161 161 9 13 15 29 13 36 -3 7 -1 13 4
13 6 0 26 15 46 34 29 28 33 34 19 40 -9 3 -22 3 -27 -1 -7 -3 -8 -1 -4 5 4 7
14 12 21 12 21 0 48 46 42 70 -3 12 0 20 7 20 19 0 49 37 41 49 -8 14 -35 14
-35 1z m-3 -36 c-3 -3 -12 -4 -19 -1 -8 3 -5 6 6 6 11 1 17 -2 13 -5z m-424
-479 c-3 -9 -8 -14 -10 -11 -3 3 -2 9 2 15 9 16 15 13 8 -4z"/>
<path d="M2550 3200 c20 -13 33 -13 25 0 -3 6 -14 10 -23 10 -15 0 -15 -2 -2
-10z"/>
<path d="M3901 3194 c0 -11 3 -14 6 -6 3 7 2 16 -1 19 -3 4 -6 -2 -5 -13z"/>
<path d="M2667 3053 c-4 -3 -7 -11 -7 -17 0 -6 5 -5 12 2 6 6 9 14 7 17 -3 3
-9 2 -12 -2z"/>
<path d="M2738 3053 c7 -3 16 -2 19 1 4 3 -2 6 -13 5 -11 0 -14 -3 -6 -6z"/>
<path d="M1165 2900 c-4 -6 3 -10 14 -10 25 0 27 6 6 13 -8 4 -17 2 -20 -3z"/>
<path d="M1427 2878 c-16 -12 -16 -15 8 -50 14 -20 22 -43 19 -51 -2 -7 2 -20
11 -27 8 -7 15 -18 15 -24 0 -6 13 -27 29 -47 17 -20 33 -49 37 -65 4 -16 26
-59 50 -96 25 -39 41 -74 38 -83 -4 -8 -1 -15 5 -15 6 0 11 -9 11 -20 0 -11 7
-20 15 -20 8 0 15 -7 15 -15 0 -8 5 -15 11 -15 5 0 8 -4 4 -9 -3 -5 1 -29 9
-53 13 -37 13 -44 1 -58 -20 -22 -19 -30 4 -30 23 0 36 -16 21 -25 -6 -4 -8
-11 -5 -16 10 -16 -5 -10 -27 11 -14 13 -24 16 -28 9 -7 -10 -25 45 -21 64 0
4 -4 7 -9 7 -7 0 -7 6 0 19 7 13 7 22 0 26 -5 3 -10 0 -10 -7 -1 -7 -12 9 -26
35 -14 27 -23 55 -20 62 3 9 0 12 -8 9 -7 -3 -18 7 -24 21 -30 65 -160 220
-224 266 -16 11 -39 22 -53 25 -24 4 -25 3 -15 -16 6 -12 17 -23 25 -26 7 -3
18 -19 24 -35 5 -16 15 -29 20 -29 6 0 11 -8 11 -17 0 -10 9 -33 21 -52 19
-31 19 -34 3 -52 -10 -11 -12 -19 -6 -19 7 0 12 -6 12 -14 0 -8 6 -16 12 -18
8 -3 4 -9 -10 -17 -12 -6 -22 -8 -21 -4 4 16 -13 43 -27 43 -8 0 -14 5 -14 10
0 6 5 10 10 10 6 0 2 10 -10 22 -11 12 -20 30 -20 39 0 24 -20 35 -21 12 0
-14 -2 -14 -9 5 -5 12 -14 22 -20 22 -5 0 -10 8 -10 19 0 11 -9 21 -21 24 -12
3 -18 10 -14 16 3 6 1 11 -6 11 -7 0 -20 6 -28 14 -9 8 -23 16 -31 18 -8 2
-34 15 -57 30 -48 32 -89 41 -87 18 1 -8 4 -31 8 -50 5 -31 5 -32 -5 -10 -6
14 -11 29 -12 34 -1 6 -16 25 -34 43 -22 23 -41 33 -60 32 -31 -1 -86 -16 -65
-18 26 -2 -20 -61 -47 -61 -31 0 -19 -12 27 -26 20 -7 29 -12 20 -13 -13 -1
-18 -9 -18 -28 l-1 -28 -17 28 c-21 34 -81 55 -120 41 -18 -6 -30 -20 -37 -42
-8 -27 -14 -32 -41 -32 -19 0 -41 -9 -58 -25 -15 -14 -31 -25 -37 -25 -12 0
-12 -47 1 -55 6 -4 9 -20 8 -36 -2 -23 -7 -29 -25 -29 -15 0 -23 6 -23 18 0
11 -3 13 -8 5 -5 -8 -13 -9 -22 -3 -43 27 -114 -7 -103 -49 4 -15 1 -21 -10
-21 -24 0 -32 -21 -12 -33 16 -9 15 -12 -16 -27 -21 -10 -38 -13 -46 -7 -21
15 -35 -3 -29 -37 4 -17 7 -37 8 -44 1 -9 11 -12 30 -10 18 3 27 0 25 -6 -2
-6 -24 -11 -48 -12 -64 -1 -69 -3 -63 -18 4 -10 -6 -16 -35 -21 -39 -6 -41 -9
-41 -41 0 -36 -20 -54 -60 -54 -14 0 -19 -4 -13 -12 11 -19 12 -38 2 -38 -5 0
-9 -260 -9 -637 0 -416 4 -633 10 -623 5 8 10 10 10 4 0 -5 -5 -15 -12 -22 -9
-9 -9 -12 0 -12 9 0 10 -5 3 -18 -6 -10 -10 -162 -11 -360 l-1 -342 1850 0
1850 0 25 42 c42 72 70 187 62 252 -7 49 -16 68 -73 144 -37 48 -87 110 -113
137 -25 28 -57 68 -70 90 -13 22 -55 73 -93 113 -163 175 -356 479 -443 702
-21 52 -57 160 -81 240 l-44 145 7 -79 c3 -44 17 -114 30 -155 32 -102 29
-113 -6 -20 -34 90 -52 199 -49 300 2 70 -8 169 -17 178 -11 11 -15 -15 -20
-115 -6 -115 12 -314 29 -314 5 0 7 -11 5 -25 -4 -20 -1 -25 16 -26 11 0 15
-3 9 -6 -7 -2 -13 -13 -13 -24 0 -27 -19 -24 -30 6 -5 14 -12 25 -15 25 -4 0
-4 -4 -1 -9 3 -5 0 -11 -7 -14 -8 -3 -14 3 -14 14 -1 12 5 19 15 19 15 0 15 2
2 10 -11 7 -12 10 -2 10 14 0 10 37 -10 89 -13 35 -18 21 -8 -22 7 -33 6 -38
-8 -35 -12 2 -17 15 -18 44 0 22 -3 45 -6 50 -6 9 -12 86 -9 112 0 6 6 12 12
12 7 0 10 -19 7 -52 -2 -33 1 -53 9 -55 8 -3 13 27 15 106 2 87 0 111 -10 111
-7 0 -11 -4 -8 -9 7 -11 -19 -63 -27 -54 -13 12 -7 52 10 69 30 30 40 58 47
137 6 63 4 76 -7 71 -9 -3 -14 -26 -15 -70 -2 -72 -18 -118 -33 -93 -4 8 -4
33 1 55 5 21 10 57 10 80 0 22 6 49 14 59 15 21 2 55 -21 55 -6 0 -10 8 -8 18
2 9 4 25 4 35 1 9 6 17 12 17 7 0 9 -9 6 -21 -4 -14 -2 -18 4 -12 6 6 6 34 -1
79 -5 38 -10 75 -10 82 0 6 -8 12 -18 12 -20 0 -50 45 -39 57 4 3 -2 13 -14
21 -11 8 -18 20 -15 28 3 8 -3 29 -14 47 -11 17 -24 41 -29 52 -5 12 -16 27
-25 34 -9 7 -16 19 -16 26 0 7 -12 27 -27 44 -21 24 -36 31 -63 31 -43 0 -84
-26 -75 -47 3 -9 1 -21 -4 -27 -12 -15 -44 -115 -48 -149 -1 -15 -9 -43 -18
-62 -10 -26 -12 -43 -5 -61 6 -14 8 -29 5 -34 -3 -5 -1 -11 4 -15 7 -3 7 -15
1 -29 -5 -13 -6 -27 -3 -30 4 -3 2 -6 -3 -6 -9 0 -11 -110 -2 -126 8 -15 -3
-104 -13 -104 -5 0 -9 10 -9 23 0 12 -6 31 -14 42 -7 11 -16 31 -20 45 -5 21
-4 20 9 -5 l15 -30 -6 35 c-8 45 -15 55 -24 40 -5 -9 -9 -9 -14 -1 -4 6 -3 11
3 11 5 0 9 12 7 28 -1 15 4 36 13 47 15 19 15 19 -4 3 -18 -17 -20 -17 -42 4
-17 15 -23 17 -23 7 0 -12 -2 -12 -10 1 -6 9 -5 17 2 21 9 6 8 12 -1 23 -7 9
-11 23 -7 31 3 8 0 27 -6 41 -8 17 -9 28 -1 32 5 4 16 25 23 47 7 22 16 44 20
48 4 5 6 16 3 26 -4 15 -20 16 -142 14 -76 -1 -142 -3 -147 -4 -5 -1 -24 2
-41 6 -34 8 -40 19 -23 45 11 18 -5 40 -30 40 -10 0 -20 7 -24 15 -8 22 -159
10 -202 -16 -37 -23 -44 -23 -44 -6 0 8 -18 19 -39 26 -23 6 -56 29 -78 52
-33 34 -41 38 -56 27z m246 -150 c-2 -5 -10 -8 -18 -8 -8 0 -16 3 -18 8 -3 4
5 7 18 7 13 0 21 -3 18 -7z m79 3 c-20 -14 -21 -40 -1 -46 22 -7 26 -25 5 -25
-8 0 -17 7 -20 16 -4 9 -13 14 -21 10 -9 -3 -15 0 -15 9 0 9 6 12 15 9 8 -4
15 -1 15 5 0 6 -9 11 -20 11 -36 0 -21 15 15 16 20 0 32 -2 27 -5z m18 -26
c-7 -9 -15 -13 -17 -11 -7 7 7 26 19 26 6 0 6 -6 -2 -15z m55 -26 c10 -15 -1
-23 -20 -15 -9 3 -13 10 -10 16 8 13 22 13 30 -1z m-931 -15 c4 -9 2 -22 -2
-28 -11 -13 -24 -87 -25 -139 0 -21 -4 -36 -9 -35 -5 2 -9 8 -9 13 0 6 -7 18
-16 27 -11 12 -14 27 -10 48 4 17 2 30 -3 30 -6 0 -10 5 -10 12 0 16 41 58 56
58 8 0 11 6 8 15 -4 8 -2 15 4 15 5 0 13 -7 16 -16z m128 -13 c2 -17 1 -28 -4
-25 -8 5 -12 54 -4 54 2 0 6 -13 8 -29z m743 -29 c-8 -8 -25 10 -19 20 4 6 9
5 15 -3 4 -7 6 -15 4 -17z m125 12 c0 -10 -6 -14 -15 -11 -8 4 -17 1 -21 -5
-4 -7 -9 -6 -15 3 -11 19 -2 29 27 29 15 0 24 -6 24 -16z m-830 -39 c0 -7 -6
-15 -12 -18 -17 -5 -48 3 -48 14 0 5 7 6 15 3 8 -4 17 1 21 10 7 18 24 12 24
-9z m874 -31 c-3 -35 -8 -38 -36 -23 -17 9 -19 13 -8 17 8 3 19 11 23 18 13
23 24 16 21 -12z m-862 -18 c-2 -9 4 -19 13 -23 11 -4 13 -8 5 -13 -8 -5 -8
-14 2 -35 10 -22 10 -29 0 -33 -16 -5 -16 -22 1 -22 6 0 13 -10 14 -22 5 -54
11 -73 23 -70 11 3 11 0 0 -13 -10 -12 -10 -21 -2 -38 14 -29 23 -60 28 -104
3 -20 9 -42 14 -48 5 -6 11 -29 14 -53 4 -37 2 -42 -15 -42 -10 0 -19 -5 -19
-11 0 -6 7 -9 15 -5 11 4 15 -2 15 -24 0 -16 -5 -32 -12 -36 -7 -4 -8 -3 -4 5
4 6 0 18 -8 27 -16 15 -20 32 -17 66 1 10 -3 26 -8 37 -6 10 -14 43 -17 73 -4
29 -11 62 -17 73 -11 22 -26 85 -30 125 -1 14 -5 27 -9 30 -4 3 -8 22 -10 43
-1 20 -5 37 -8 37 -3 0 -6 8 -6 18 0 9 -3 30 -7 45 -5 18 -4 26 2 23 5 -4 13
-2 16 4 10 16 30 6 27 -14z m924 -15 c-8 -12 -46 -21 -46 -11 0 9 18 18 38 19
7 1 11 -3 8 -8z m712 -19 c6 -20 -27 -13 -38 8 -9 17 -8 19 12 11 12 -4 24
-13 26 -19z m-698 -32 c-8 -5 -19 -10 -25 -10 -5 0 -3 5 5 10 8 5 20 10 25 10
6 0 3 -5 -5 -10z m647 4 c-3 -3 -12 -4 -19 -1 -8 3 -5 6 6 6 11 1 17 -2 13 -5z
m-3 -21 c-5 -5 -11 -11 -14 -14 -3 -4 -11 -1 -18 7 -11 12 -8 14 14 14 15 0
23 -3 18 -7z m-7 -39 c-3 -3 -12 -4 -19 -1 -8 3 -5 6 6 6 11 1 17 -2 13 -5z
m-564 -11 c-7 -2 -19 -2 -25 0 -7 3 -2 5 12 5 14 0 19 -2 13 -5z m-1551 -29
c-2 -10 -6 -21 -8 -24 -9 -8 -22 23 -17 37 8 20 29 9 25 -13z m303 16 c3 -5
-1 -10 -10 -10 -9 0 -13 5 -10 10 3 6 8 10 10 10 2 0 7 -4 10 -10z m568 -7
c-7 -2 -19 -2 -25 0 -7 3 -2 5 12 5 14 0 19 -2 13 -5z m707 -3 c0 -5 -7 -7
-15 -4 -8 4 -15 8 -15 10 0 2 7 4 15 4 8 0 15 -4 15 -10z m-682 -28 c6 -18
-15 -14 -22 4 -4 10 -1 14 6 12 6 -2 14 -10 16 -16z m-843 -2 c3 -6 -4 -10
-17 -10 -18 0 -20 2 -8 10 19 12 18 12 25 0z m851 -35 c9 -8 11 -15 5 -15 -19
0 -12 -18 10 -25 16 -5 18 -10 9 -18 -8 -9 -15 -8 -25 6 -9 12 -14 14 -17 6
-2 -7 -4 4 -4 25 0 41 1 42 22 21z m1179 -25 c3 -5 1 -10 -4 -10 -6 0 -11 5
-11 10 0 6 2 10 4 10 3 0 8 -4 11 -10z m-2371 -45 c3 -8 1 -15 -4 -15 -6 0
-10 7 -10 15 0 8 2 15 4 15 2 0 6 -7 10 -15z m2376 5 c8 -5 11 -10 5 -10 -5 0
-17 5 -25 10 -8 5 -10 10 -5 10 6 0 17 -5 25 -10z m-1142 -39 c-9 -15 -15 -17
-25 -9 -20 16 -15 28 12 28 22 0 24 -2 13 -19z m-751 -57 c-3 -3 -12 -4 -19
-1 -8 3 -5 6 6 6 11 1 17 -2 13 -5z m1923 -48 c0 -19 -17 -29 -25 -16 -5 8
-11 7 -21 -1 -11 -9 -14 -8 -14 4 0 13 9 18 53 26 4 0 7 -5 7 -13z m-2528 -21
c-4 -23 -22 -36 -22 -16 0 5 -3 16 -6 25 -4 11 0 16 14 16 15 0 18 -5 14 -25z
m1408 15 c0 -5 -5 -10 -11 -10 -5 0 -7 5 -4 10 3 6 8 10 11 10 2 0 4 -4 4 -10z
m-1415 -60 c-28 -12 -37 -12 -30 0 3 6 16 10 28 9 21 0 21 -1 2 -9z m2232 -92
c-3 -7 -5 -2 -5 12 0 14 2 19 5 13 2 -7 2 -19 0 -25z m-2237 -32 c0 -3 -4 -8
-10 -11 -5 -3 -10 -1 -10 4 0 6 5 11 10 11 6 0 10 -2 10 -4z m2755 -381 c17
-4 25 -9 18 -12 -15 -6 4 -52 29 -71 10 -7 18 -22 18 -32 0 -10 6 -25 13 -32
8 -7 12 -18 10 -25 -2 -6 6 -15 19 -19 22 -7 22 -7 3 -15 -19 -7 -19 -8 -1 -8
11 -1 16 -4 12 -8 -9 -10 -77 -4 -91 7 -7 6 -16 6 -20 2 -5 -4 -5 -1 0 7 4 8
2 16 -5 21 -7 5 -2 8 15 8 19 0 23 -3 14 -9 -8 -5 -12 -9 -9 -10 3 0 15 -2 28
-5 26 -5 28 2 7 22 -8 9 -15 24 -15 35 0 11 -7 22 -15 25 -8 3 -17 21 -21 40
-3 19 -10 37 -15 40 -5 3 -7 10 -4 15 4 5 2 9 -4 9 -5 0 -12 -3 -14 -8 -7 -10
20 -85 35 -97 7 -5 14 -18 14 -27 1 -13 -2 -15 -15 -9 -17 9 -22 19 -55 94
-24 57 -19 116 8 83 6 -7 25 -17 41 -21z m125 -128 c19 -39 36 -75 38 -79 2
-5 0 -8 -5 -8 -5 0 -15 16 -23 35 -8 19 -17 35 -21 35 -4 0 -12 12 -17 28 -5
15 -13 35 -17 45 -4 9 -3 17 1 17 5 0 25 -33 44 -73z m21 -157 c10 -19 22 -39
26 -45 4 -5 19 -31 33 -56 40 -73 111 -179 121 -179 5 0 9 -7 9 -15 0 -8 4
-15 9 -15 11 0 41 -56 41 -77 0 -7 -4 -13 -10 -13 -5 0 -10 4 -10 9 0 5 -7 17
-16 25 -8 9 -11 16 -5 16 5 0 -6 17 -24 38 -19 20 -35 40 -35 44 0 3 -15 22
-32 40 -18 19 -34 42 -36 53 -2 10 -10 24 -18 32 -8 8 -14 21 -14 29 0 10 -10
13 -31 12 -19 -2 -34 2 -36 10 -3 7 4 12 17 12 14 0 20 5 18 18 -2 9 -5 19 -8
22 -11 10 -50 68 -50 75 0 19 35 -5 51 -35z m-59 -32 c-5 -21 -6 -21 -12 -2
-8 21 -3 37 10 29 4 -3 6 -15 2 -27z m138 -7 c0 -11 -4 -9 -14 4 -8 11 -12 24
-9 28 7 11 23 -12 23 -32z m-1330 -45 c0 -3 -4 -8 -10 -11 -5 -3 -10 -1 -10 4
0 6 5 11 10 11 6 0 10 -2 10 -4z m1375 -36 c3 -5 1 -10 -4 -10 -6 0 -11 5 -11
10 0 6 2 10 4 10 3 0 8 -4 11 -10z m29 -45 c3 -8 1 -15 -4 -15 -6 0 -10 7 -10
15 0 8 2 15 4 15 2 0 6 -7 10 -15z m-40 -110 c6 -17 -9 -20 -20 -4 -4 8 -9 7
-15 -2 -4 -7 -11 -10 -14 -7 -11 11 5 28 25 28 10 0 20 -7 24 -15z m-294 -39
c0 -3 -4 -8 -10 -11 -5 -3 -10 -1 -10 4 0 6 5 11 10 11 6 0 10 -2 10 -4z m210
-35 c0 -5 -9 -7 -20 -4 -11 3 -20 7 -20 9 0 2 9 4 20 4 11 0 20 -4 20 -9z
m-20 -115 c-1 -20 -1 -20 -11 -2 -6 10 -20 27 -30 37 -11 11 -19 26 -19 35 0
11 9 6 30 -16 17 -18 30 -42 30 -54z m25 54 c3 -5 2 -10 -4 -10 -5 0 -13 5
-16 10 -3 6 -2 10 4 10 5 0 13 -4 16 -10z m251 -27 c17 -23 17 -30 -1 -30 -8
0 -13 2 -10 5 2 3 0 13 -6 23 -12 24 -1 25 17 2z m44 -63 c0 -5 -2 -10 -4 -10
-3 0 -8 5 -11 10 -3 6 -1 10 4 10 6 0 11 -4 11 -10z m-315 -9 c7 -12 -12 -24
-25 -16 -11 7 -4 25 10 25 5 0 11 -4 15 -9z m265 -11 c0 -5 -10 -10 -22 -9
-22 0 -22 1 -3 9 11 5 21 9 23 9 1 1 2 -3 2 -9z m94 -32 c-3 -5 -11 -8 -17 -8
-8 0 -8 3 1 9 11 7 10 9 -3 15 -9 3 -13 11 -10 17 5 6 12 4 20 -8 7 -10 11
-21 9 -25z m53 -34 c-3 -3 -12 -4 -19 -1 -8 3 -5 6 6 6 11 1 17 -2 13 -5z m33
-22 c0 -15 -2 -15 -10 -2 -13 20 -13 33 0 25 6 -3 10 -14 10 -23z m-120 -47
c0 -7 10 -20 23 -28 12 -9 17 -16 10 -16 -14 -1 -63 45 -63 59 0 5 7 7 15 4 8
-4 15 -12 15 -19z m166 -7 c4 -12 18 -31 31 -41 18 -15 22 -22 13 -31 -14 -14
-69 49 -67 76 2 25 14 22 23 -4z m-358 0 c7 -7 12 -24 12 -39 0 -15 5 -31 10
-34 6 -3 10 -1 10 4 0 6 5 11 11 11 6 0 9 -7 5 -15 -3 -9 0 -15 9 -15 8 0 15
-4 15 -10 0 -5 -4 -10 -10 -10 -5 0 -10 -4 -10 -10 0 -5 7 -7 15 -4 10 4 15 0
15 -14 0 -12 7 -25 16 -30 14 -8 14 -10 0 -21 -9 -8 -16 -10 -16 -6 0 5 -10
-3 -21 -16 l-21 -24 7 24 c5 16 4 21 -4 17 -6 -4 -16 -4 -22 0 -7 4 1 12 20
20 17 7 31 18 31 23 0 14 -57 7 -101 -12 -30 -12 -36 -12 -52 4 -12 11 -15 19
-8 24 6 3 14 -1 17 -9 3 -9 12 -16 20 -16 24 0 15 15 -18 30 -24 11 -28 15
-15 18 9 2 17 8 17 13 0 5 -8 9 -17 10 -12 0 -8 4 10 11 29 10 35 23 15 31 -8
3 -6 6 5 6 9 1 17 -3 17 -7 0 -4 9 -8 19 -9 11 -1 18 4 16 10 -14 48 -12 47
-45 31 -17 -9 -38 -13 -48 -9 -14 6 -11 9 12 16 16 4 33 6 38 3 4 -3 8 0 8 5
0 15 23 14 38 -1z m161 -49 c-22 -14 -33 -10 -19 6 7 8 17 12 22 9 6 -4 5 -10
-3 -15z m147 -4 c-8 -8 -17 -15 -20 -15 -3 0 -3 7 0 15 4 8 13 15 21 15 12 0
12 -2 -1 -15z m137 -39 c4 -10 0 -12 -14 -9 -22 6 -26 23 -5 23 8 0 16 -6 19
-14z m-53 -35 c0 -5 -6 -12 -12 -14 -7 -3 -3 -6 10 -6 19 -1 21 -4 12 -20 -11
-22 -42 -21 -65 3 -21 20 -19 29 5 21 21 -7 28 10 8 18 -7 3 -1 6 15 6 15 1
27 -3 27 -8z m-110 -62 c0 -6 -4 -7 -10 -4 -5 3 -10 11 -10 16 0 6 5 7 10 4 6
-3 10 -11 10 -16z m-380 -9 c0 -5 -7 -7 -15 -4 -8 4 -15 8 -15 10 0 2 7 4 15
4 8 0 15 -4 15 -10z m404 -34 c-6 -26 -44 -39 -44 -15 0 6 7 9 15 5 10 -3 15
1 15 13 0 18 10 34 17 27 2 -2 1 -15 -3 -30z m-345 -1 c7 3 8 0 5 -9 -7 -19
-16 -20 -32 -4 -17 17 -15 33 3 18 8 -6 19 -9 24 -5z m229 -17 c-6 -18 -25
-20 -31 -3 -5 10 0 15 14 15 12 0 19 -5 17 -12z m237 -18 c3 -5 2 -10 -4 -10
-5 0 -13 5 -16 10 -3 6 -2 10 4 10 5 0 13 -4 16 -10z m-198 -6 c-3 -3 -12 -4
-19 -1 -8 3 -5 6 6 6 11 1 17 -2 13 -5z m163 -34 c0 -5 -4 -10 -9 -10 -6 0
-13 5 -16 10 -3 6 1 10 9 10 9 0 16 -4 16 -10z m33 -27 c-7 -2 -19 -2 -25 0
-7 3 -2 5 12 5 14 0 19 -2 13 -5z m-134 -12 c11 -7 10 -13 -9 -32 -16 -17 -24
-20 -27 -11 -3 7 -11 19 -19 26 -11 11 -11 16 -1 19 19 8 41 7 56 -2z m118
-33 c-3 -7 -5 -2 -5 12 0 14 2 19 5 13 2 -7 2 -19 0 -25z m93 6 c-11 -28 -40
-73 -40 -62 0 10 41 88 46 88 2 0 -1 -12 -6 -26z m-113 -6 c-3 -8 -6 -5 -6 6
-1 11 2 17 5 13 3 -3 4 -12 1 -19z"/>
<path d="M870 2640 c-9 -6 -10 -10 -3 -10 6 0 15 5 18 10 8 12 4 12 -15 0z"/>
<path d="M3147 523 c-10 -9 -9 -53 2 -53 12 0 20 35 12 49 -4 6 -10 8 -14 4z"/>
<path d="M3110 480 c0 -5 5 -10 11 -10 5 0 7 5 4 10 -3 6 -8 10 -11 10 -2 0
-4 -4 -4 -10z"/>
<path d="M2204 2767 c5 -23 2 -28 -19 -33 -14 -3 -25 -10 -25 -15 0 -13 13
-11 35 5 11 8 24 12 31 9 6 -2 14 3 17 11 4 9 13 13 22 10 9 -4 15 -1 15 9 0
8 -9 17 -20 20 -15 4 -20 0 -20 -14 0 -10 -5 -19 -10 -19 -6 0 -10 7 -8 16 2
10 -3 19 -11 22 -10 3 -12 -2 -7 -21z"/>
<path d="M1930 2760 c0 -5 7 -10 16 -10 8 0 12 5 9 10 -3 6 -10 10 -16 10 -5
0 -9 -4 -9 -10z"/>
<path d="M2065 2760 c-7 -12 48 -12 85 0 20 6 14 8 -27 9 -28 1 -55 -3 -58 -9z"/>
<path d="M955 2750 c3 -5 8 -10 11 -10 2 0 4 5 4 10 0 6 -5 10 -11 10 -5 0 -7
-4 -4 -10z"/>
<path d="M1975 2750 c3 -5 10 -10 16 -10 5 0 9 5 9 10 0 6 -7 10 -16 10 -8 0
-12 -4 -9 -10z"/>
<path d="M2010 2751 c0 -5 -3 -16 -6 -25 -4 -10 -1 -16 9 -16 9 0 15 10 15 25
0 14 -4 25 -9 25 -5 0 -9 -4 -9 -9z"/>
<path d="M2290 2740 c0 -5 4 -10 9 -10 6 0 13 5 16 10 3 6 -1 10 -9 10 -9 0
-16 -4 -16 -10z"/>
<path d="M2365 2741 c-3 -5 -22 -15 -43 -21 -20 -6 -43 -14 -51 -16 -11 -4
-11 -7 1 -22 8 -9 18 -25 21 -34 8 -21 27 -24 27 -4 0 8 7 16 15 20 8 3 20 17
25 31 5 14 14 25 20 25 5 0 10 7 10 15 0 17 -16 20 -25 6z"/>
<path d="M3044 2721 c13 -5 16 -10 8 -15 -8 -5 -8 -14 -2 -32 9 -23 8 -25 -10
-19 -16 5 -20 2 -20 -17 0 -13 7 -33 15 -44 15 -18 15 -18 9 9 -9 38 16 32 34
-7 7 -16 15 -26 19 -23 3 4 1 12 -5 20 -6 7 -15 32 -20 55 -8 33 -7 46 4 56
11 12 11 15 -2 20 -9 3 -23 6 -32 5 -14 0 -13 -2 2 -8z"/>
<path d="M3184 2723 c-12 -2 -24 -13 -27 -24 -6 -21 8 -35 18 -19 4 6 11 8 16
5 5 -4 9 -1 9 4 0 6 8 11 18 12 10 0 12 3 4 6 -6 2 -10 9 -6 14 3 5 2 8 -3 8
-4 -1 -18 -4 -29 -6z"/>
<path d="M2073 2703 c9 -2 23 -2 30 0 6 3 -1 5 -18 5 -16 0 -22 -2 -12 -5z"/>
<path d="M3094 2698 c-5 -8 3 -12 19 -9 4 0 7 -3 7 -9 0 -5 -6 -10 -14 -10 -8
0 -18 -5 -21 -10 -4 -6 5 -10 24 -8 25 2 29 6 29 29 -1 21 -6 27 -20 26 -11
-1 -22 -5 -24 -9z"/>
<path d="M2720 2680 c0 -5 5 -10 10 -10 6 0 10 5 10 10 0 6 -4 10 -10 10 -5 0
-10 -4 -10 -10z"/>
<path d="M2758 2633 c15 -6 16 -35 0 -51 -9 -9 -6 -12 16 -12 18 0 26 -4 23
-12 -2 -7 -12 -12 -22 -11 -13 1 -14 -2 -6 -10 12 -12 16 -13 46 -16 9 0 15
-11 15 -24 0 -26 43 -90 53 -80 4 3 7 -3 7 -14 0 -10 10 -29 23 -40 27 -26 67
-73 67 -80 0 -3 10 -18 23 -33 23 -29 57 -74 69 -94 5 -7 15 -4 30 12 20 19
21 24 8 32 -8 6 -25 8 -37 5 -13 -3 -23 -1 -23 4 0 5 10 16 23 24 l22 16 -27
0 c-30 1 -38 18 -12 28 12 4 13 8 3 14 -8 4 -19 3 -27 -3 -9 -8 -16 -8 -23 -1
-7 7 -1 15 19 24 17 7 28 17 26 21 -3 5 -9 6 -13 4 -4 -3 -13 18 -21 47 -7 29
-17 62 -23 75 -11 24 -32 29 -40 10 -4 -10 -6 -10 -6 0 -1 8 8 16 19 19 11 3
20 9 20 13 0 12 -44 20 -54 10 -13 -13 -26 -13 -26 0 0 6 6 10 14 10 23 0 24
35 2 61 -26 30 -96 40 -96 14 0 -11 6 -14 25 -9 14 3 25 2 25 -2 -1 -14 -30
-49 -30 -37 0 6 -15 20 -32 32 -18 11 -29 21 -24 21 5 0 1 9 -9 20 -10 11 -23
20 -29 19 -6 0 -6 -3 2 -6z m172 -164 c0 -6 -4 -7 -10 -4 -5 3 -10 11 -10 16
0 6 5 7 10 4 6 -3 10 -11 10 -16z m-26 -25 c3 -8 2 -12 -4 -9 -6 3 -10 10 -10
16 0 14 7 11 14 -7z m56 -14 c0 -5 -4 -10 -10 -10 -5 0 -10 5 -10 10 0 6 5 10
10 10 6 0 10 -4 10 -10z"/>
<path d="M1310 2550 c0 -5 5 -10 10 -10 6 0 10 5 10 10 0 6 -4 10 -10 10 -5 0
-10 -4 -10 -10z"/>
<path d="M465 2450 c-3 -5 -1 -10 4 -10 6 0 11 5 11 10 0 6 -2 10 -4 10 -3 0
-8 -4 -11 -10z"/>
<path d="M3035 2430 c3 -5 16 -10 28 -9 21 0 21 1 2 9 -28 12 -37 12 -30 0z"/>
<path d="M2260 2420 c0 -5 5 -10 10 -10 6 0 10 5 10 10 0 6 -4 10 -10 10 -5 0
-10 -4 -10 -10z"/>
<path d="M3108 2415 c-9 -9 19 -65 32 -65 6 0 10 5 10 10 0 6 -6 10 -12 10 -9
0 -8 4 2 10 13 8 13 10 -2 10 -9 0 -18 7 -20 16 -2 9 -6 13 -10 9z"/>
<path d="M3271 2314 c0 -11 3 -14 6 -6 3 7 2 16 -1 19 -3 4 -6 -2 -5 -13z"/>
<path d="M3172 2309 c2 -7 10 -15 17 -17 8 -3 12 1 9 9 -2 7 -10 15 -17 17 -8
3 -12 -1 -9 -9z"/>
<path d="M1664 2261 c5 -8 4 -16 -3 -20 -8 -5 -6 -13 5 -27 15 -19 15 -19 9 0
-3 11 -1 22 5 26 7 4 5 12 -6 21 -14 11 -16 11 -10 0z"/>
<path d="M3350 2260 c0 -5 4 -10 9 -10 6 0 13 5 16 10 3 6 -1 10 -9 10 -9 0
-16 -4 -16 -10z"/>
<path d="M3109 2140 c-6 -15 15 -65 32 -75 15 -10 10 21 -5 35 -8 6 -16 21
-18 33 -3 15 -5 18 -9 7z"/>
<path d="M3655 2060 c-4 -6 5 -10 20 -10 15 0 24 4 20 10 -3 6 -12 10 -20 10
-8 0 -17 -4 -20 -10z"/>
<path d="M3178 2014 c-4 -5 0 -18 8 -29 15 -20 17 -12 5 19 -4 11 -10 15 -13
10z"/>
<path d="M4210 1870 c0 -5 7 -10 16 -10 8 0 12 5 9 10 -3 6 -10 10 -16 10 -5
0 -9 -4 -9 -10z"/>
<path d="M4075 1860 c-3 -6 1 -7 9 -4 18 7 21 14 7 14 -6 0 -13 -4 -16 -10z"/>
<path d="M4035 1851 c-3 -5 -1 -12 5 -16 5 -3 10 1 10 9 0 18 -6 21 -15 7z"/>
<path d="M4180 1830 c-8 -5 -12 -11 -9 -14 3 -3 14 1 25 9 21 16 8 20 -16 5z"/>
<path d="M4110 1819 c0 -5 5 -7 10 -4 6 3 10 8 10 11 0 2 -4 4 -10 4 -5 0 -10
-5 -10 -11z"/>
<path d="M4085 1761 c-3 -5 -1 -12 5 -16 5 -3 10 1 10 9 0 18 -6 21 -15 7z"/>
<path d="M4065 1721 c-18 -7 -18 -8 -1 -18 12 -7 15 -13 7 -17 -6 -4 -11 -14
-11 -22 0 -8 5 -12 10 -9 6 4 10 -5 10 -21 0 -21 -4 -25 -20 -21 -11 3 -20 1
-20 -5 0 -5 10 -8 22 -6 16 2 24 12 29 36 4 17 3 32 -1 32 -3 0 -5 14 -2 30 2
17 3 30 1 29 -2 0 -13 -4 -24 -8z"/>
<path d="M4295 1720 c3 -5 10 -10 16 -10 5 0 9 5 9 10 0 6 -7 10 -16 10 -8 0
-12 -4 -9 -10z"/>
<path d="M4008 1713 c7 -3 16 -2 19 1 4 3 -2 6 -13 5 -11 0 -14 -3 -6 -6z"/>
<path d="M4219 1713 c13 -3 26 -13 28 -24 4 -15 8 -17 19 -8 18 15 18 30 0 23
-8 -3 -17 -1 -21 5 -3 6 -16 10 -28 10 -21 -2 -21 -2 2 -6z"/>
<path d="M3640 1640 c0 -5 5 -10 10 -10 6 0 10 5 10 10 0 6 -4 10 -10 10 -5 0
-10 -4 -10 -10z"/>
<path d="M4181 1636 c2 -2 22 -6 44 -9 27 -4 35 -3 25 3 -14 9 -79 15 -69 6z"/>
<path d="M4107 1613 c-12 -12 -7 -22 8 -17 8 4 15 10 15 15 0 11 -14 12 -23 2z"/>
<path d="M4208 1583 c7 -3 16 -2 19 1 4 3 -2 6 -13 5 -11 0 -14 -3 -6 -6z"/>
<path d="M3415 1520 c-3 -5 -1 -10 4 -10 6 0 11 5 11 10 0 6 -2 10 -4 10 -3 0
-8 -4 -11 -10z"/>
<path d="M3523 1403 c-15 -5 -17 -23 -4 -23 5 0 11 7 15 15 3 8 4 15 3 14 -1
0 -8 -3 -14 -6z"/>
<path d="M3586 1395 c10 -8 23 -15 28 -15 6 0 1 7 -10 15 -10 8 -23 15 -28 15
-6 0 -1 -7 10 -15z"/>
<path d="M3550 1370 c0 -5 5 -10 11 -10 5 0 7 5 4 10 -3 6 -8 10 -11 10 -2 0
-4 -4 -4 -10z"/>
<path d="M4068 1143 c7 -3 16 -2 19 1 4 3 -2 6 -13 5 -11 0 -14 -3 -6 -6z"/>
<path d="M3808 1123 c6 -2 18 -2 25 0 6 3 1 5 -13 5 -14 0 -19 -2 -12 -5z"/>
<path d="M3520 796 c0 -2 7 -7 16 -10 8 -3 12 -2 9 4 -6 10 -25 14 -25 6z"/>
<path d="M4643 378 c-17 -22 -25 -44 -10 -25 15 18 34 7 22 -13 -9 -15 14 -12
29 3 11 11 11 17 1 30 -15 20 -29 22 -42 5z"/>
<path d="M4408 73 c7 -3 16 -2 19 1 4 3 -2 6 -13 5 -11 0 -14 -3 -6 -6z"/>
<path d="M4430 20 c-6 -11 -7 -20 -2 -20 6 0 12 9 15 20 3 11 3 20 1 20 -2 0
-8 -9 -14 -20z"/>
</g>
</svg>
